<?xml version="1.0" encoding="UTF-8"?>
<svg version="1.1" xmlns="http://www.w3.org/2000/svg" width="171" height="174">
<path d="M0 0 C1.12474228 -0.01268417 2.24948456 -0.02536835 3.40830994 -0.03843689 C4.61878494 -0.03550125 5.82925995 -0.03256561 7.07641602 -0.02954102 C8.32407242 -0.03478287 9.57172882 -0.04002472 10.85719299 -0.04542542 C13.49609915 -0.05184987 16.13414091 -0.05194214 18.77294922 -0.04199219 C22.14695532 -0.03050699 25.51991409 -0.05070824 28.89378262 -0.07990932 C32.12133214 -0.10271682 35.34880479 -0.09580272 38.57641602 -0.09204102 C39.78486679 -0.10327499 40.99331757 -0.11450897 42.23838806 -0.12608337 C43.93022972 -0.11201195 43.93022972 -0.11201195 45.65625 -0.09765625 C46.645681 -0.09749008 47.635112 -0.09732391 48.65452576 -0.09715271 C52.20465515 0.55264697 53.87949884 1.84761386 56.39282227 4.40405273 C57.03878784 6.36515808 57.03878784 6.36515808 57.06811523 8.44384766 C57.09098602 9.22954636 57.11385681 10.01524506 57.13742065 10.82475281 C57.13662506 11.66947647 57.13582947 12.51420013 57.13500977 13.38452148 C57.16124924 14.71390495 57.16124924 14.71390495 57.1880188 16.07014465 C57.23754114 18.91080042 57.25238324 21.75052994 57.26782227 24.59155273 C57.29957125 26.45291796 57.3334052 28.31424886 57.36938477 30.17553711 C57.51081801 38.78920128 57.48401266 47.40824015 57.15063477 56.01733398 C57.13612274 56.71054245 57.12161072 57.40375092 57.10665894 58.1179657 C56.93689564 61.41519957 56.56087917 63.18525295 54.52905273 65.83056641 C52.39282227 67.40405273 52.39282227 67.40405273 49.45532227 67.96655273 C45.36759345 67.2157454 44.16823504 65.45023748 41.39282227 62.40405273 C39.11611583 60.64174859 36.76825994 59.03425506 34.39282227 57.40405273 C33.28684127 58.65244773 32.18312026 59.90284507 31.08032227 61.15405273 C30.46543945 61.85014648 29.85055664 62.54624023 29.21704102 63.26342773 C27.36366061 65.37383956 27.36366061 65.37383956 25.78735352 67.66967773 C25.3271582 68.24202148 24.86696289 68.81436523 24.39282227 69.40405273 C23.73282227 69.40405273 23.07282227 69.40405273 22.39282227 69.40405273 C22.02930664 70.49266602 22.02930664 70.49266602 21.65844727 71.60327148 C20.22958613 74.76528825 18.52771145 76.7059296 16.14282227 79.21655273 C12.24005855 83.42627539 8.7583737 87.76226773 5.39282227 92.40405273 C4.11219742 94.11155253 2.79831787 95.79777204 1.39282227 97.40405273 C0.73282227 97.40405273 0.07282227 97.40405273 -0.60717773 97.40405273 C-0.88561523 98.39405273 -0.88561523 98.39405273 -1.16967773 99.40405273 C-2.91100249 103.03812178 -5.24002335 105.5847363 -7.95092773 108.53686523 C-9.77519679 110.50748464 -9.77519679 110.50748464 -11.60717773 113.40405273 C-12.26717773 113.40405273 -12.92717773 113.40405273 -13.60717773 113.40405273 C-13.8559668 113.9622168 -14.10475586 114.52038086 -14.36108398 115.09545898 C-15.82332171 117.80449503 -17.57561787 119.97369593 -19.54467773 122.34155273 C-20.73383789 123.7762793 -20.73383789 123.7762793 -21.94702148 125.23999023 C-23.82618937 127.4819291 -25.71667695 129.71404379 -27.61108398 131.94311523 C-28.35853882 132.82302124 -28.35853882 132.82302124 -29.12109375 133.72070312 C-30.09968199 134.87034737 -31.08058388 136.01802687 -32.06396484 137.16357422 C-34.6009118 140.10090193 -34.6009118 140.10090193 -36.60717773 143.40405273 C-37.26717773 143.40405273 -37.92717773 143.40405273 -38.60717773 143.40405273 C-38.97842773 144.57967773 -38.97842773 144.57967773 -39.35717773 145.77905273 C-40.81642277 148.8434673 -41.6573273 149.02131034 -44.60717773 150.40405273 C-45.69884049 152.33735876 -45.69884049 152.33735876 -46.60717773 154.40405273 C-49.06696451 157.60177554 -51.73177526 158.47108547 -55.60717773 159.40405273 C-61.64511413 160.05257183 -67.32667632 159.59249109 -72.60717773 156.40405273 C-74.86152408 154.25072663 -76.70038585 151.86266691 -78.60717773 149.40405273 C-79.43217773 148.57905273 -80.25717773 147.75405273 -81.10717773 146.90405273 C-84.10834904 143.90288143 -87.09389787 140.83282286 -89.60717773 137.40405273 C-89.60717773 136.74405273 -89.60717773 136.08405273 -89.60717773 135.40405273 C-90.26717773 135.40405273 -90.92717773 135.40405273 -91.60717773 135.40405273 C-92.95118704 133.41121135 -94.28259065 131.40985603 -95.60717773 129.40405273 C-96.37030273 128.64479492 -97.13342773 127.88553711 -97.91967773 127.10327148 C-100.81383806 124.19649127 -103.30325577 121.15307805 -105.79467773 117.90405273 C-106.23231445 117.3484668 -106.66995117 116.79288086 -107.12084961 116.22045898 C-111.8830224 110.04054009 -113.19662758 105.26172314 -113.04467773 97.54077148 C-112.04641539 90.38358696 -108.01796544 85.19807607 -102.41967773 80.84155273 C-96.74280669 76.88901727 -91.34021352 76.90215274 -84.60717773 77.40405273 C-74.26948451 80.38271011 -67.84330981 89.16108028 -61.60717773 97.40405273 C-57.24994088 95.82054386 -54.78427192 92.42469084 -51.91967773 88.96655273 C-51.39293457 88.34127686 -50.86619141 87.71600098 -50.32348633 87.07177734 C-46.35851941 82.35143555 -42.45179078 77.58276122 -38.56420898 72.79858398 C-35.52076331 69.07476722 -32.37586188 65.44253616 -29.22436523 61.81030273 C-26.25156094 58.3663983 -23.35134136 54.87243338 -20.48217773 51.34155273 C-16.27713474 46.17658511 -11.95847651 41.11734658 -7.59301758 36.08740234 C-5.43757388 33.59355044 -3.43827212 31.15069431 -1.60717773 28.40405273 C-0.94717773 28.40405273 -0.28717773 28.40405273 0.39282227 28.40405273 C1.38282227 25.92905273 1.38282227 25.92905273 2.39282227 23.40405273 C1.67094727 22.84717773 0.94907227 22.29030273 0.20532227 21.71655273 C-9.15331631 14.02167213 -9.15331631 14.02167213 -9.94311523 9.46655273 C-9.96245117 8.44561523 -9.96245117 8.44561523 -9.98217773 7.40405273 C-10.01053711 6.72342773 -10.03889648 6.04280273 -10.06811523 5.34155273 C-9.60717773 3.40405273 -9.60717773 3.40405273 -7.92881775 1.80821228 C-5.07658069 0.08314041 -3.32024695 0.01814546 0 0 Z M14.39282227 14.40405273 C15.71282227 16.05405273 17.03282227 17.70405273 18.39282227 19.40405273 C19.15809626 22.87721934 19.42490698 24.14813909 18.39282227 27.40405273 C16.41465733 30.12013987 14.22925743 32.44643323 11.88110352 34.84936523 C9.60056405 37.19076682 7.58647169 39.57773452 5.58032227 42.15405273 C2.30594138 46.30899421 -1.08947003 50.33745256 -4.54467773 54.34155273 C-9.00038926 59.50598449 -13.36132557 64.73039604 -17.66186523 70.02514648 C-19.74151295 72.56833014 -21.87422052 75.05802224 -24.02514648 77.54077148 C-26.02940931 79.9013477 -27.97088028 82.31000666 -29.91967773 84.71655273 C-32.89411282 88.36858108 -35.93537924 91.92227044 -39.10717773 95.40405273 C-44.40676568 101.22430195 -49.67638706 107.2037364 -54.18530273 113.66577148 C-55.60717773 115.40405273 -55.60717773 115.40405273 -58.48217773 116.34155273 C-62.28889831 116.41768715 -63.51356735 115.56020542 -66.60717773 113.40405273 C-68.81811523 111.20483398 -68.81811523 111.20483398 -70.98217773 108.71655273 C-71.75561523 107.83354492 -72.52905273 106.95053711 -73.32592773 106.04077148 C-74.07874023 105.1706543 -74.83155273 104.30053711 -75.60717773 103.40405273 C-76.27749023 102.64737305 -76.94780273 101.89069336 -77.63842773 101.11108398 C-82.25410652 95.89888738 -82.25410652 95.89888738 -84.15405273 93.23608398 C-85.50912542 91.21373674 -85.50912542 91.21373674 -87.98217773 90.46655273 C-91.43380869 90.38437104 -92.88377538 91.32566673 -95.60717773 93.40405273 C-98.12206928 95.83222388 -98.57004506 97.11574903 -99.02124023 100.61889648 C-98.47409514 105.62062853 -96.52930812 107.65135408 -93.16967773 111.21655273 C-92.35031738 112.12775879 -92.35031738 112.12775879 -91.5144043 113.05737305 C-89.89389564 114.8542507 -88.2528966 116.63028229 -86.60717773 118.40405273 C-85.02152842 120.15195453 -83.43789975 121.90169365 -81.85717773 123.65405273 C-81.14561523 124.43651367 -80.43405273 125.21897461 -79.70092773 126.02514648 C-77.49900467 128.52695832 -75.4220534 131.10078673 -73.35717773 133.71655273 C-69.78466319 138.24079084 -66.43758109 142.18378383 -61.60717773 145.40405273 C-58.00372559 145.33269725 -56.73037919 144.51564554 -54.03686523 142.07592773 C-53.19381836 141.11170898 -52.35077148 140.14749023 -51.48217773 139.15405273 C-50.63397461 138.20014648 -49.78577148 137.24624023 -48.91186523 136.26342773 C-46.60278843 133.53574117 -46.60278843 133.53574117 -45.05249023 130.79467773 C-43.50174624 128.22966335 -41.7574674 126.48103707 -39.60717773 124.40405273 C-38.2545487 122.79507869 -36.92271588 121.16849232 -35.60717773 119.52905273 C-31.99155056 115.06759516 -28.29743824 110.68806707 -24.54467773 106.34155273 C-19.76500038 100.79770032 -15.13493152 95.15635812 -10.60717773 89.40405273 C-9.87499023 88.5287793 -9.14280273 87.65350586 -8.38842773 86.75170898 C-6.40569623 84.6296571 -6.40569623 84.6296571 -6.60717773 82.40405273 C-5.74092773 82.09467773 -5.74092773 82.09467773 -4.85717773 81.77905273 C-2.37429001 80.26173246 -1.3683474 78.66621318 0.14282227 76.22827148 C1.64797442 74.03169005 3.3548056 72.12715707 5.14282227 70.15405273 C10.24325315 64.51524304 14.91465654 58.56524647 19.60375977 52.58374023 C20.31790039 51.67881836 21.03204102 50.77389648 21.76782227 49.84155273 C22.41493164 49.01526367 23.06204102 48.18897461 23.72875977 47.33764648 C25.39282227 45.40405273 25.39282227 45.40405273 27.39282227 44.40405273 C27.72282227 43.74405273 28.05282227 43.08405273 28.39282227 42.40405273 C29.39282227 40.40405273 29.39282227 40.40405273 31.39282227 39.40405273 C36.55966586 38.94477775 37.60714985 39.53264929 42.39282227 42.40405273 C42.39282227 33.16405273 42.39282227 23.92405273 42.39282227 14.40405273 C33.15282227 14.40405273 23.91282227 14.40405273 14.39282227 14.40405273 Z " fill="#3CA2E4" transform="translate(112.607177734375,3.595947265625)"/>
<path d="M0 0 C8.14450995 4.76376997 13.67168554 11.48142344 19.3125 18.9375 C23.53293229 17.37948995 25.84386168 14.21870091 28.5625 10.8125 C29.02140625 10.24917969 29.4803125 9.68585938 29.953125 9.10546875 C31.07924953 7.72127401 32.19674385 6.33006589 33.3125 4.9375 C33.8075 6.4225 33.8075 6.4225 34.3125 7.9375 C32.5 11.125 32.5 11.125 30.3125 13.9375 C29.6525 13.9375 28.9925 13.9375 28.3125 13.9375 C28.126875 14.8965625 28.126875 14.8965625 27.9375 15.875 C27.73125 16.555625 27.525 17.23625 27.3125 17.9375 C26.3225 18.4325 26.3225 18.4325 25.3125 18.9375 C24.66036708 20.96213255 24.66036708 20.96213255 24.3125 22.9375 C24.9725 22.9375 25.6325 22.9375 26.3125 22.9375 C25.8175 23.865625 25.8175 23.865625 25.3125 24.8125 C24.17056765 26.84768344 24.17056765 26.84768344 24.3125 28.9375 C26.7875 29.9275 26.7875 29.9275 29.3125 30.9375 C29.56 29.968125 29.8075 28.99875 30.0625 28 C30.68125 26.4840625 30.68125 26.4840625 31.3125 24.9375 C33.4375 24.0625 33.4375 24.0625 35.3125 23.9375 C35.415625 23.298125 35.51875 22.65875 35.625 22 C35.851875 21.319375 36.07875 20.63875 36.3125 19.9375 C37.3025 19.6075 38.2925 19.2775 39.3125 18.9375 C39.3125 17.9475 39.3125 16.9575 39.3125 15.9375 C39.9725 15.9375 40.6325 15.9375 41.3125 15.9375 C41.3125 14.9475 41.3125 13.9575 41.3125 12.9375 C45.65535714 8.9375 45.65535714 8.9375 48.3125 8.9375 C48.3125 7.6175 48.3125 6.2975 48.3125 4.9375 C49.3025 5.2675 50.2925 5.5975 51.3125 5.9375 C48.31854534 10.88403379 44.65599183 14.95253037 40.7578125 19.2109375 C36.01390934 24.5004653 31.5065258 30.02175519 27.234375 35.69921875 C25.3125 37.9375 25.3125 37.9375 22.375 38.9375 C17.63828684 38.9375 15.17832767 36.79915165 11.8828125 33.51953125 C11.07585938 32.60558594 10.26890625 31.69164062 9.4375 30.75 C8.57382812 29.77675781 7.71015625 28.80351563 6.8203125 27.80078125 C5.99273437 26.85589844 5.16515625 25.91101563 4.3125 24.9375 C3.60867187 24.14730469 2.90484375 23.35710937 2.1796875 22.54296875 C-0.30708733 19.73884399 -2.60454919 17.06192622 -4.6875 13.9375 C-7.00774404 12.92296047 -7.00774404 12.92296047 -9.6875 12.9375 C-13.17384601 14.55905629 -14.53052194 15.70203292 -16.6875 18.9375 C-17.1533609 22.20635589 -17.39190856 24.71288066 -15.69970703 27.65478516 C-14.29340757 29.44060351 -12.80885983 31.09575703 -11.25 32.75 C-10.70375977 33.3574707 -10.15751953 33.96494141 -9.59472656 34.59082031 C-7.97421791 36.38769796 -6.33321886 38.16372956 -4.6875 39.9375 C-3.10185069 41.6854018 -1.51822202 43.43514092 0.0625 45.1875 C0.7740625 45.96996094 1.485625 46.75242188 2.21875 47.55859375 C4.42067306 50.06040559 6.49762433 52.63423399 8.5625 55.25 C13.34933877 61.63474097 13.34933877 61.63474097 19.8125 66.0625 C22.48401611 66.17546687 22.48401611 66.17546687 24.625 64.0625 C25.53437795 63.03263664 26.42803927 61.98884011 27.3125 60.9375 C28.64543248 59.4579721 29.97879727 57.97883361 31.3125 56.5 C35.10589462 52.19799381 38.78107044 47.81464407 42.40625 43.37109375 C46.64976688 38.17278557 50.91755889 33.00858589 55.3125 27.9375 C56.3125 29.9375 56.3125 29.9375 55.5 32.5 C54.3125 34.9375 54.3125 34.9375 52.3125 35.9375 C52.003125 36.72125 51.69375 37.505 51.375 38.3125 C50.32226352 40.91337837 49.489833 42.21377805 47.3125 43.9375 C46.6525 43.9375 45.9925 43.9375 45.3125 43.9375 C45.3125 44.9275 45.3125 45.9175 45.3125 46.9375 C45.9725 46.9375 46.6325 46.9375 47.3125 46.9375 C47.8075 49.4125 47.8075 49.4125 48.3125 51.9375 C50.3287233 51.22186734 50.3287233 51.22186734 52.3125 49.9375 C52.90320014 47.99146726 52.90320014 47.99146726 53.3125 45.9375 C56.27182903 42.27356881 59.85184993 40.99911609 64.3125 39.9375 C63.466875 40.906875 62.62125 41.87625 61.75 42.875 C57.42124085 47.925219 53.37173911 53.19045835 49.3828125 58.51171875 C48.76148437 59.33285156 48.14015625 60.15398437 47.5 61 C46.65501953 62.13115234 46.65501953 62.13115234 45.79296875 63.28515625 C45.30441406 63.83042969 44.81585938 64.37570313 44.3125 64.9375 C43.6525 64.9375 42.9925 64.9375 42.3125 64.9375 C41.94125 66.113125 41.94125 66.113125 41.5625 67.3125 C40.10325497 70.37691457 39.26235044 70.55475761 36.3125 71.9375 C35.22083725 73.87080603 35.22083725 73.87080603 34.3125 75.9375 C31.85271322 79.13522281 29.18790247 80.00453274 25.3125 80.9375 C19.2745636 81.58601909 13.59300141 81.12593835 8.3125 77.9375 C6.05815366 75.78417389 4.21929188 73.39611418 2.3125 70.9375 C1.4875 70.1125 0.6625 69.2875 -0.1875 68.4375 C-3.1886713 65.4363287 -6.17422014 62.36627012 -8.6875 58.9375 C-8.6875 58.2775 -8.6875 57.6175 -8.6875 56.9375 C-9.3475 56.9375 -10.0075 56.9375 -10.6875 56.9375 C-12.0315093 54.94465862 -13.36291292 52.94330329 -14.6875 50.9375 C-15.450625 50.17824219 -16.21375 49.41898438 -17 48.63671875 C-19.89416033 45.72993854 -22.38357803 42.68652532 -24.875 39.4375 C-25.31263672 38.88191406 -25.75027344 38.32632813 -26.20117188 37.75390625 C-30.96334467 31.57398736 -32.27694985 26.7951704 -32.125 19.07421875 C-31.12673765 11.91703423 -27.0982877 6.73152333 -21.5 2.375 C-14.9855421 -2.16070738 -7.48129309 -2.15562682 0 0 Z " fill="#4EB1CE" transform="translate(31.6875,82.0625)"/>
<path d="M0 0 C4.057041 0.53039297 5.94844566 2.57643552 8.75 5.4375 C9.54921875 6.24058594 10.3484375 7.04367188 11.171875 7.87109375 C13 10 13 10 13 12 C13.598125 12.23847656 14.19625 12.47695312 14.8125 12.72265625 C20.75790509 16.19434815 24.18941252 25.44323755 26.296875 31.765625 C29.22880372 45.2524971 27.32393094 58.05023517 19.91162109 69.71240234 C14.6665252 77.34952923 8.52660668 82.3588377 0 86 C-0.80824219 86.35835938 -1.61648437 86.71671875 -2.44921875 87.0859375 C-7.29644843 88.82292333 -12.07342087 89.12431768 -17.18896484 89.11352539 C-18.38975677 89.11344986 -19.59054871 89.11337433 -20.82772827 89.11329651 C-22.10918732 89.10813522 -23.39064636 89.10297394 -24.7109375 89.09765625 C-26.04757636 89.09578895 -27.38421592 89.09436652 -28.72085571 89.09336853 C-32.22249269 89.08956795 -35.72408756 89.07975891 -39.22570801 89.06866455 C-42.80541413 89.05839732 -46.38512712 89.05385957 -49.96484375 89.04882812 C-56.97657969 89.03813422 -63.98828782 89.02108764 -71 89 C-69.58484882 85.26180649 -68.1437718 82.71051446 -65.4375 79.75 C-64.81746094 79.06421875 -64.19742188 78.3784375 -63.55859375 77.671875 C-61.07295105 75.00557155 -61.07295105 75.00557155 -59.10458374 74.85523987 C-57.86051254 74.84097206 -57.86051254 74.84097206 -56.59130859 74.82641602 C-55.65298187 74.81292618 -54.71465515 74.79943634 -53.74789429 74.78553772 C-52.21366318 74.76988014 -52.21366318 74.76988014 -50.6484375 74.75390625 C-48.49608997 74.72094938 -46.34374631 74.68773806 -44.19140625 74.65429688 C-40.78795223 74.60699264 -37.38451185 74.56261016 -33.98095703 74.52319336 C-30.7032754 74.48332644 -27.42593131 74.43179534 -24.1484375 74.37890625 C-23.13776215 74.3704921 -22.12708679 74.36207794 -21.08578491 74.35340881 C-15.64166529 74.2587606 -11.17505622 73.65480968 -6 72 C-4.68 72 -3.36 72 -2 72 C-1.773125 71.4225 -1.54625 70.845 -1.3125 70.25 C0 68 0 68 2.3125 66.1875 C7.41559452 62.03381842 10.2579558 57.34104089 12 51 C13.14834402 39.61002969 11.09735357 31.59595244 4.28515625 22.5546875 C2.34074954 20.20248729 0.21110285 18.10054771 -2 16 C-3.66666667 14.33333333 -5.33333333 12.66666667 -7 11 C-6.1875 8.5625 -6.1875 8.5625 -5 6 C-4.01 5.67 -3.02 5.34 -2 5 C-0.78130071 2.49552484 -0.78130071 2.49552484 0 0 Z " fill="#399FEA" transform="translate(142,74)"/>
<path d="M0 0 C7.5406086 6.1571541 14.18414869 13.49627997 20.88427734 20.53857422 C19.12358959 25.11047161 17.11152609 27.88668748 13.88427734 31.53857422 C9.60437289 31.06302928 7.75729423 28.55173827 4.88427734 25.53857422 C4.07990234 24.91982422 3.27552734 24.30107422 2.44677734 23.66357422 C0.29531283 21.87943292 -1.14941471 20.31959743 -2.86572266 18.16357422 C-6.95297015 13.25040625 -12.6466151 8.55221959 -19.11572266 7.53857422 C-21.75356294 7.41816325 -24.35337284 7.35349381 -26.99072266 7.35107422 C-27.68552734 7.33882812 -28.38033203 7.32658203 -29.09619141 7.31396484 C-38.79607272 7.28656405 -44.90426195 11.45193319 -52.11572266 17.53857422 C-62.42936639 28.10711789 -67.23960079 41.47486015 -67.74072266 55.97607422 C-67.77939453 56.89839844 -67.81806641 57.82072266 -67.85791016 58.77099609 C-67.95140941 61.02666565 -68.03716175 63.28234337 -68.11572266 65.53857422 C-68.65841797 65.79251953 -69.20111328 66.04646484 -69.76025391 66.30810547 C-70.47568359 66.65228516 -71.19111328 66.99646484 -71.92822266 67.35107422 C-72.63591797 67.68751953 -73.34361328 68.02396484 -74.07275391 68.37060547 C-76.17241479 69.44374261 -76.17241479 69.44374261 -77.68994141 71.17529297 C-79.11572266 72.53857422 -79.11572266 72.53857422 -82.11572266 72.53857422 C-82.79180551 48.50642914 -81.31211948 27.12739183 -64.11572266 8.53857422 C-47.11390966 -9.17411597 -20.99077784 -15.1715523 0 0 Z " fill="#4BB0CC" transform="translate(82.11572265625,11.46142578125)"/>
<path d="M0 0 C4.057041 0.53039297 5.94844566 2.57643552 8.75 5.4375 C9.54921875 6.24058594 10.3484375 7.04367188 11.171875 7.87109375 C13 10 13 10 13 12 C13.598125 12.23847656 14.19625 12.47695312 14.8125 12.72265625 C20.76365364 16.1977049 24.15076373 25.41949308 26.30859375 31.73046875 C27.20076942 35.94940117 27.396621 40.00889791 27.4375 44.3125 C27.44765137 45.07755859 27.45780273 45.84261719 27.46826172 46.63085938 C27.39306134 51.47334028 26.54598374 54.75219158 24 59 C23.34 59 22.68 59 22 59 C21.34 61.31 20.68 63.62 20 66 C19.01 66 18.02 66 17 66 C17 66.99 17 67.98 17 69 C16.34 69 15.68 69 15 69 C14.67 69.99 14.34 70.98 14 72 C12.02 71.34 10.04 70.68 8 70 C8 68.68 8 67.36 8 66 C6.515 66.495 6.515 66.495 5 67 C5.51204622 62.51959559 7.21959908 60.4544375 10 57 C12.8748053 49.88917417 13.2914874 41.76105085 11.27734375 34.3359375 C8.22918614 27.153639 3.62434877 21.34313133 -2 16 C-3.66666667 14.33333333 -5.33333333 12.66666667 -7 11 C-6.1875 8.5625 -6.1875 8.5625 -5 6 C-4.01 5.67 -3.02 5.34 -2 5 C-0.78130071 2.49552484 -0.78130071 2.49552484 0 0 Z " fill="#389DEE" transform="translate(142,74)"/>
<path d="M0 0 C1 2 1 2 0.1875 4.5625 C-1 7 -1 7 -3 8 C-3.309375 8.78375 -3.61875 9.5675 -3.9375 10.375 C-4.99023648 12.97587837 -5.822667 14.27627805 -8 16 C-8.66 16 -9.32 16 -10 16 C-10 16.99 -10 17.98 -10 19 C-9.34 19 -8.68 19 -8 19 C-7.505 21.475 -7.505 21.475 -7 24 C-4.9837767 23.28436734 -4.9837767 23.28436734 -3 22 C-2.40929986 20.05396726 -2.40929986 20.05396726 -2 18 C0.95932903 14.33606881 4.53934993 13.06161609 9 12 C7.7315625 13.4540625 7.7315625 13.4540625 6.4375 14.9375 C2.10874085 19.987719 -1.94076089 25.25295835 -5.9296875 30.57421875 C-6.55101562 31.39535156 -7.17234375 32.21648437 -7.8125 33.0625 C-8.37582031 33.81660156 -8.93914062 34.57070312 -9.51953125 35.34765625 C-10.00808594 35.89292969 -10.49664062 36.43820313 -11 37 C-11.66 37 -12.32 37 -13 37 C-13.2475 37.78375 -13.495 38.5675 -13.75 39.375 C-15.20924503 42.43941457 -16.05014956 42.61725761 -19 44 C-20.09166275 45.93330603 -20.09166275 45.93330603 -21 48 C-23.45978678 51.19772281 -26.12459753 52.06703274 -30 53 C-33.06542914 53.35656901 -35.9457825 53.49638334 -39 53 C-41.3125 51.0625 -41.3125 51.0625 -43 49 C-45.1381966 48.2127322 -45.1381966 48.2127322 -47 48 C-47 46.35 -47 44.7 -47 43 C-48.65 42.34 -50.3 41.68 -52 41 C-52 37 -52 37 -50 35 C-50.32198966 31.90073181 -50.32198966 31.90073181 -51 29 C-45.18732365 30.87187882 -42.30440627 32.57925842 -38 37 C-35.57589864 38.31901591 -35.57589864 38.31901591 -33 38 C-31.01715421 36.3922872 -29.62726771 34.93429936 -28 33 C-26.66706752 31.5204721 -25.33370273 30.04133361 -24 28.5625 C-20.20660538 24.26049381 -16.53142956 19.87714407 -12.90625 15.43359375 C-8.66273312 10.23528557 -4.39494111 5.07108589 0 0 Z M-46 40 C-46 40.66 -46 41.32 -46 42 C-45.34 42 -44.68 42 -44 42 C-44 41.34 -44 40.68 -44 40 C-44.66 40 -45.32 40 -46 40 Z " fill="#40ABD4" transform="translate(87,110)"/>
<path d="M0 0 C0.495 1.485 0.495 1.485 1 3 C-0.43359375 5.375 -0.43359375 5.375 -2.4375 8 C-5.36858929 11.59050211 -5.36858929 11.59050211 -6 16 C-5.34 15.67 -4.68 15.34 -4 15 C-2.45386986 15.08651631 -0.91090613 15.24002636 0.625 15.4375 C1.44226563 15.53933594 2.25953125 15.64117187 3.1015625 15.74609375 C3.72804687 15.82988281 4.35453125 15.91367187 5 16 C3.70423453 18.80634516 2.29298167 21.01239976 0.2421875 23.3203125 C-0.29768799 23.93382568 -0.83756348 24.54733887 -1.39379883 25.17944336 C-1.96509521 25.82147705 -2.5363916 26.46351074 -3.125 27.125 C-8.25576772 32.96017211 -13.22451253 38.8683318 -18 45 C-19.32 44.67 -20.64 44.34 -22 44 C-22 45.32 -22 46.64 -22 48 C-26.22222222 52 -26.22222222 52 -29 52 C-29 52.99 -29 53.98 -29 55 C-29.66 55 -30.32 55 -31 55 C-31 55.99 -31 56.98 -31 58 C-31.66 58 -32.32 58 -33 58 C-33.2475 58.804375 -33.495 59.60875 -33.75 60.4375 C-34.36875 61.7059375 -34.36875 61.7059375 -35 63 C-35.66 63.144375 -36.32 63.28875 -37 63.4375 C-37.66 63.623125 -38.32 63.80875 -39 64 C-40.3045656 66.99615946 -40.3045656 66.99615946 -41 70 C-45.75 69.25 -45.75 69.25 -48 67 C-46.68 65.35 -45.36 63.7 -44 62 C-44.66 62 -45.32 62 -46 62 C-45.625 59.5625 -45.625 59.5625 -45 57 C-44.01 56.505 -44.01 56.505 -43 56 C-42.67 55.01 -42.34 54.02 -42 53 C-41.34 52.34 -40.68 51.68 -40 51 C-37.97925517 48.62782129 -36.89031285 46.71076128 -35.7734375 43.765625 C-33.99389057 39.53486906 -31.25999604 36.66615312 -28.0625 33.4375 C-24.21052119 29.4909941 -21.04241347 25.63031195 -18 21 C-16.68891703 19.64478157 -15.35534593 18.31095117 -14 17 C-12.50104723 15.22485379 -11.02282478 13.432057 -9.5625 11.625 C-8.78132813 10.66207031 -8.00015625 9.69914062 -7.1953125 8.70703125 C-6.47085938 7.81371094 -5.74640625 6.92039062 -5 6 C-3.34111319 3.99328209 -1.67209913 1.99573122 0 0 Z " fill="#41AAD7" transform="translate(102,43)"/>
<path d="M0 0 C16.02760315 2.10581647 26.4821462 15.94501507 37 27 C35.23931224 31.57189739 33.22724875 34.34811326 30 38 C25.72009555 37.52445506 23.87301689 35.01316405 21 32 C20.195625 31.38125 19.39125 30.7625 18.5625 30.125 C16.41103549 28.3408587 14.96630795 26.78102321 13.25 24.625 C9.34290922 19.91827147 4.33273845 16.61789303 -1.1484375 13.95703125 C-3 13 -3 13 -5 11 C-8.18701422 10.7172319 -8.18701422 10.7172319 -11.8125 10.8125 C-13.03582031 10.81894531 -14.25914063 10.82539063 -15.51953125 10.83203125 C-18.47662799 10.97474187 -21.12846565 11.31630135 -24 12 C-23.34 10.35 -22.68 8.7 -22 7 C-22.66 6.67 -23.32 6.34 -24 6 C-24 4.35 -24 2.7 -24 1 C-20.41668375 0.97092916 -16.83339792 0.95317737 -13.25 0.9375 C-12.23421875 0.92912109 -11.2184375 0.92074219 -10.171875 0.91210938 C-9.1921875 0.90888672 -8.2125 0.90566406 -7.203125 0.90234375 C-6.30239258 0.89710693 -5.40166016 0.89187012 -4.47363281 0.88647461 C-2 1 -2 1 0.26269531 1.56860352 C0.83600586 1.71096436 1.40931641 1.8533252 2 2 C2.33 1.67 2.66 1.34 3 1 C2.01 0.67 1.02 0.34 0 0 Z " fill="#3FA9D8" transform="translate(66,5)"/>
<path d="M0 0 C0.99 0 1.98 0 3 0 C4.90700524 3.22578647 5.24479238 5.5935996 5.22705078 9.31933594 C5.22689972 10.38013367 5.22674866 11.4409314 5.22659302 12.53387451 C5.21627045 13.67253967 5.20594788 14.81120483 5.1953125 15.984375 C5.1924826 17.15510559 5.18965271 18.32583618 5.18673706 19.53204346 C5.17554156 23.27146625 5.15043776 27.01064959 5.125 30.75 C5.1149694 33.28515279 5.10584369 35.82030934 5.09765625 38.35546875 C5.07560426 44.57039421 5.04213275 50.78518 5 57 C4.34 57 3.68 57 3 57 C3 57.66 3 58.32 3 59 C2.34 59 1.68 59 1 59 C1 59.66 1 60.32 1 61 C-5.625 60.25 -5.625 60.25 -9 58 C-10 56 -11 54 -12 52 C-12.99 51.34 -13.98 50.68 -15 50 C-16.1875 47.375 -16.1875 47.375 -17 45 C-15.515 44.505 -15.515 44.505 -14 44 C-14.495 42.515 -14.495 42.515 -15 41 C-16.65 40.67 -18.3 40.34 -20 40 C-20 39.01 -20 38.02 -20 37 C-16.535 36.505 -16.535 36.505 -13 36 C-13 36.66 -13 37.32 -13 38 C-11.35 38 -9.7 38 -8 38 C-7.67 28.76 -7.34 19.52 -7 10 C-6.67 10 -6.34 10 -6 10 C-5.67 12.97 -5.34 15.94 -5 19 C-3.50256881 17.50256881 -3.66797307 16.01175761 -3.4375 13.9375 C-3.293125 12.638125 -3.14875 11.33875 -3 10 C-2.34 10 -1.68 10 -1 10 C-0.67 6.7 -0.34 3.4 0 0 Z " fill="#339CF3" transform="translate(163,8)"/>
<path d="M0 0 C2.375 2 2.375 2 4 4 C3.34 4.33 2.68 4.66 2 5 C1.34 4.67 0.68 4.34 0 4 C0 3.34 0 2.68 0 2 C-2.31 2.33 -4.62 2.66 -7 3 C-7 3.99 -7 4.98 -7 6 C-5.35 6 -3.7 6 -2 6 C-1.505 7.98 -1.505 7.98 -1 10 C-1.66 10.33 -2.32 10.66 -3 11 C-1.6062718 15.43458973 0.60582235 17.87378374 4 21 C3.67 21.66 3.34 22.32 3 23 C1.02 21.68 -0.96 20.36 -3 19 C-4.105981 20.24839499 -5.20970201 21.49879234 -6.3125 22.75 C-6.92738281 23.44609375 -7.54226562 24.1421875 -8.17578125 24.859375 C-10.02916165 26.96978683 -10.02916165 26.96978683 -11.60546875 29.265625 C-12.06566406 29.83796875 -12.52585938 30.4103125 -13 31 C-13.66 31 -14.32 31 -15 31 C-15.33 31.99 -15.66 32.98 -16 34 C-18.89558441 35.4477922 -20.74188938 36 -24 36 C-24 36.66 -24 37.32 -24 38 C-24.99 38 -25.98 38 -27 38 C-26.67 38.99 -26.34 39.98 -26 41 C-26.9375 43.6875 -26.9375 43.6875 -28 46 C-29.32 45.67 -30.64 45.34 -32 45 C-32 43.35 -32 41.7 -32 40 C-32.99 39.67 -33.98 39.34 -35 39 C-32.70363907 34.89072255 -30.24244855 31.40061677 -27 28 C-25.68 28 -24.36 28 -23 28 C-22.67 27.01 -22.34 26.02 -22 25 C-21.34 25 -20.68 25 -20 25 C-20.350625 23.906875 -20.70125 22.81375 -21.0625 21.6875 C-21.54783534 18.22170787 -21.03065316 17.04892963 -19.1328125 14.01953125 C-16.85479504 11.20657997 -14.60356264 8.51569818 -12 6 C-11.34 6 -10.68 6 -10 6 C-9.896875 5.38125 -9.79375 4.7625 -9.6875 4.125 C-8.16154816 -0.5915784 -4.26064398 -0.52171151 0 0 Z " fill="#389FEA" transform="translate(150,42)"/>
<path d="M0 0 C0.66 1.32 1.32 2.64 2 4 C1.34 4.99 0.68 5.98 0 7 C-0.66 6.67 -1.32 6.34 -2 6 C-3.15811388 7.05270463 -3.15811388 7.05270463 -4 9 C-3.01 9 -2.02 9 -1 9 C-1.33 9.99 -1.66 10.98 -2 12 C-21.14 12 -40.28 12 -60 12 C-58 9 -58 9 -55.875 8.3125 C-55.25625 8.209375 -54.6375 8.10625 -54 8 C-54 7.01 -54 6.02 -54 5 C-50.89638328 1.89638328 -47.136882 2.6813304 -42.96875 2.65625 C-41.61021912 2.6343158 -41.61021912 2.6343158 -40.22424316 2.61193848 C-37.31620756 2.56533895 -34.40823865 2.53124554 -31.5 2.5 C-27.69767587 2.45854561 -23.89580722 2.40462182 -20.09375 2.34375 C-19.23293823 2.3384729 -18.37212646 2.3331958 -17.48522949 2.32775879 C-11.46909349 2.23095409 -5.85802137 1.35983511 0 0 Z " fill="#39A4E1" transform="translate(134,149)"/>
<path d="M0 0 C1 2 1 2 0.1875 4.5625 C-1 7 -1 7 -3 8 C-3.309375 8.78375 -3.61875 9.5675 -3.9375 10.375 C-4.99023648 12.97587837 -5.822667 14.27627805 -8 16 C-8.66 16 -9.32 16 -10 16 C-10 16.99 -10 17.98 -10 19 C-9.34 19 -8.68 19 -8 19 C-7.505 21.475 -7.505 21.475 -7 24 C-4.9837767 23.28436734 -4.9837767 23.28436734 -3 22 C-2.40929986 20.05396726 -2.40929986 20.05396726 -2 18 C0.95932903 14.33606881 4.53934993 13.06161609 9 12 C7.7315625 13.4540625 7.7315625 13.4540625 6.4375 14.9375 C2.10874085 19.987719 -1.94076089 25.25295835 -5.9296875 30.57421875 C-6.55101562 31.39535156 -7.17234375 32.21648437 -7.8125 33.0625 C-8.37582031 33.81660156 -8.93914062 34.57070312 -9.51953125 35.34765625 C-10.00808594 35.89292969 -10.49664062 36.43820313 -11 37 C-11.66 37 -12.32 37 -13 37 C-13.433125 38.2065625 -13.433125 38.2065625 -13.875 39.4375 C-15 42 -15 42 -17 43 C-17 41.68 -17 40.36 -17 39 C-17.66 39 -18.32 39 -19 39 C-19 37.68 -19 36.36 -19 35 C-19.66 34.67 -20.32 34.34 -21 34 C-20.34 34 -19.68 34 -19 34 C-19 32.68 -19 31.36 -19 30 C-19.763125 30.66 -20.52625 31.32 -21.3125 32 C-24 34 -24 34 -27 34 C-27.144375 34.804375 -27.28875 35.60875 -27.4375 36.4375 C-28 39 -28 39 -29 40 C-36.45864662 40.36090226 -36.45864662 40.36090226 -40 38 C-39.67 37.34 -39.34 36.68 -39 36 C-38.01 36.66 -37.02 37.32 -36 38 C-32.58846685 37.88350862 -31.24206005 37.21675192 -28.68359375 34.92578125 C-27.94238281 34.06339844 -27.20117188 33.20101562 -26.4375 32.3125 C-25.66019531 31.41015625 -24.88289063 30.5078125 -24.08203125 29.578125 C-21.84335162 26.80602639 -19.90574639 24.00521547 -18 21 C-17 20 -16 19 -15 18 C-13.54744908 16.26247242 -12.11153084 14.51097769 -10.6875 12.75 C-7.18662169 8.44254679 -3.63517365 4.19443114 0 0 Z M-19 28 C-19 28.66 -19 29.32 -19 30 C-18.34 30 -17.68 30 -17 30 C-17 29.34 -17 28.68 -17 28 C-17.66 28 -18.32 28 -19 28 Z " fill="#45ACD8" transform="translate(87,110)"/>
<path d="M0 0 C1.43169777 -0.00956978 1.43169777 -0.00956978 2.89231873 -0.01933289 C4.45007774 -0.02100212 4.45007774 -0.02100212 6.03930664 -0.02270508 C7.0985585 -0.02603348 8.15781036 -0.02936188 9.24916077 -0.03279114 C11.49455327 -0.03786502 13.73995334 -0.04019932 15.98535156 -0.04003906 C19.43119667 -0.04222474 22.87672141 -0.06037354 26.32250977 -0.0793457 C28.49894096 -0.08227961 30.67537368 -0.08426443 32.85180664 -0.08520508 C34.40652931 -0.09598335 34.40652931 -0.09598335 35.99266052 -0.10697937 C36.95027786 -0.10390274 37.9078952 -0.10082611 38.89453125 -0.09765625 C39.73978867 -0.09908127 40.58504608 -0.10050629 41.45591736 -0.10197449 C43.51196289 0.14526367 43.51196289 0.14526367 45.51196289 2.14526367 C39.88159285 3.09452873 34.41467816 3.30867941 28.71118164 3.35620117 C26.82901094 3.3842333 24.94684957 3.41289742 23.06469727 3.44213867 C20.11734932 3.48360542 17.17018283 3.52052302 14.22265625 3.54663086 C11.36430804 3.57409904 8.50673462 3.61992049 5.64868164 3.66870117 C4.76226486 3.67195404 3.87584808 3.67520691 2.96257019 3.67855835 C0.80718921 3.72220324 -1.34397305 3.92040517 -3.48803711 4.14526367 C-4.47803711 5.63026367 -4.47803711 5.63026367 -5.48803711 7.14526367 C-5.15803711 7.80526367 -4.82803711 8.46526367 -4.48803711 9.14526367 C-6.46803711 9.80526367 -8.44803711 10.46526367 -10.48803711 11.14526367 C8.32196289 11.47526367 27.13196289 11.80526367 46.51196289 12.14526367 C46.18196289 12.80526367 45.85196289 13.46526367 45.51196289 14.14526367 C25.71196289 14.14526367 5.91196289 14.14526367 -14.48803711 14.14526367 C-12.79428552 9.91088469 -11.83995031 8.08347352 -8.92553711 4.89526367 C-8.30549805 4.20948242 -7.68545898 3.52370117 -7.04663086 2.81713867 C-4.47777013 0.06156877 -3.83617375 0.01731602 0 0 Z " fill="#5EA9CF" transform="translate(85.488037109375,148.854736328125)"/>
<path d="M0 0 C1.4606285 2.64738916 2 3.89448334 2 7 C4.64 7 7.28 7 10 7 C10.33 7.66 10.66 8.32 11 9 C10.40832031 9.12375 9.81664063 9.2475 9.20703125 9.375 C4.52695558 10.59655319 1.68936414 11.68151207 -0.9375 15.875 C-2.51683271 18.82671837 -3.91048097 21.8304901 -5 25 C-5.99 25 -6.98 25 -8 25 C-7.67 26.98 -7.34 28.96 -7 31 C-7.99 31.33 -8.98 31.66 -10 32 C-12.0245738 30.06745228 -13.42105792 28.36841312 -15 26 C-14.80184993 23.57266158 -14.47268889 21.37669742 -14 19 C-13.85175781 18.16210938 -13.70351562 17.32421875 -13.55078125 16.4609375 C-12.78321854 12.29767738 -12.05401832 8.73848522 -10 5 C-7 6 -7 6 -5.8125 8.0625 C-5.544375 8.701875 -5.27625 9.34125 -5 10 C-5 9.236875 -5 8.47375 -5 7.6875 C-5 5.79166667 -5 3.89583333 -5 2 C-3.35 1.34 -1.7 0.68 0 0 Z " fill="#47AFC9" transform="translate(16,85)"/>
<path d="M0 0 C2.89286818 1.65306753 4.89613203 3.23701315 7.0625 5.75 C5.7425 5.75 4.4225 5.75 3.0625 5.75 C2.4025 4.76 1.7425 3.77 1.0625 2.75 C0.4025 3.08 -0.2575 3.41 -0.9375 3.75 C-1.9275 4.245 -1.9275 4.245 -2.9375 4.75 C-3.5975 4.42 -4.2575 4.09 -4.9375 3.75 C-4.6075 4.471875 -4.2775 5.19375 -3.9375 5.9375 C-2.93146471 8.76697427 -2.76772598 10.77895466 -2.9375 13.75 C-2.298125 14.018125 -1.65875 14.28625 -1 14.5625 C1.0625 15.75 1.0625 15.75 2.0625 18.75 C3.3825 18.42 4.7025 18.09 6.0625 17.75 C6.0625 19.4 6.0625 21.05 6.0625 22.75 C2.26848795 22.20799828 0.87034756 20.7449434 -1.5 17.8125 C-3.61281519 15.21971343 -5.11296286 13.63302476 -7.9375 11.75 C-7.2775 11.42 -6.6175 11.09 -5.9375 10.75 C-8.5775 10.42 -11.2175 10.09 -13.9375 9.75 C-13.9375 8.76 -13.9375 7.77 -13.9375 6.75 C-14.5975 6.42 -15.2575 6.09 -15.9375 5.75 C-15.9375 5.09 -15.9375 4.43 -15.9375 3.75 C-17.5875 4.41 -19.2375 5.07 -20.9375 5.75 C-20.6075 6.41 -20.2775 7.07 -19.9375 7.75 C-19.89727609 10.0829866 -19.89429753 12.41706666 -19.9375 14.75 C-20.370625 14.151875 -20.80375 13.55375 -21.25 12.9375 C-22.71211239 11.04216913 -24.20800227 9.3971407 -25.9375 7.75 C-27.59335619 12.2444668 -28.55478014 16.68119508 -29.375 21.3828125 C-29.93772224 23.75093524 -30.76347818 25.62697721 -31.9375 27.75 C-32.6563664 20.00221773 -32.21974391 14.47897498 -27.79296875 7.94921875 C-20.71295164 -0.44246469 -10.651842 -4.25149442 0 0 Z M-3.9375 5.75 C-2.9475 6.245 -2.9475 6.245 -1.9375 6.75 C-2.9275 7.245 -2.9275 7.245 -3.9375 7.75 C-3.9375 7.09 -3.9375 6.43 -3.9375 5.75 Z " fill="#57B2CA" transform="translate(31.9375,82.25)"/>
<path d="M0 0 C0.33 0.99 0.66 1.98 1 3 C-0.43359375 5.375 -0.43359375 5.375 -2.4375 8 C-5.36858929 11.59050211 -5.36858929 11.59050211 -6 16 C-5.34 15.67 -4.68 15.34 -4 15 C-2.45386986 15.08651631 -0.91090613 15.24002636 0.625 15.4375 C1.44226563 15.53933594 2.25953125 15.64117187 3.1015625 15.74609375 C3.72804688 15.82988281 4.35453125 15.91367187 5 16 C3.65800312 18.92093506 2.13508255 21.2113951 0.03125 23.63671875 C-0.53980469 24.29607422 -1.11085938 24.95542969 -1.69921875 25.63476562 C-2.59060547 26.65086914 -2.59060547 26.65086914 -3.5 27.6875 C-4.09425781 28.37650391 -4.68851563 29.06550781 -5.30078125 29.77539062 C-9.73849902 34.86924951 -9.73849902 34.86924951 -12 36 C-11.67 34.68 -11.34 33.36 -11 32 C-10.34 32 -9.68 32 -9 32 C-9.350625 31.38125 -9.70125 30.7625 -10.0625 30.125 C-10.371875 29.42375 -10.68125 28.7225 -11 28 C-10.67 27.34 -10.34 26.68 -10 26 C-11.32 25.34 -12.64 24.68 -14 24 C-14.66 24.99 -15.32 25.98 -16 27 C-16.33 26.01 -16.66 25.02 -17 24 C-17.66 24 -18.32 24 -19 24 C-17.85603713 20.56811138 -16.56921314 19.49218206 -14 17 C-12.50104723 15.22485379 -11.02282478 13.432057 -9.5625 11.625 C-8.78132813 10.66207031 -8.00015625 9.69914062 -7.1953125 8.70703125 C-6.47085938 7.81371094 -5.74640625 6.92039062 -5 6 C-3.34111319 3.99328209 -1.67209913 1.99573122 0 0 Z " fill="#4AABDB" transform="translate(102,43)"/>
<path d="M0 0 C0.99 0.66 1.98 1.32 3 2 C3.99 2 4.98 2 6 2 C6 2.99 6 3.98 6 5 C6.66 5 7.32 5 8 5 C7.67 6.98 7.34 8.96 7 11 C6.01 11 5.02 11 4 11 C4 11.66 4 12.32 4 13 C1.525 12.505 1.525 12.505 -1 12 C-1 13.65 -1 15.3 -1 17 C-2.65 17 -4.3 17 -6 17 C-6.33 17.66 -6.66 18.32 -7 19 C-5.68 18.67 -4.36 18.34 -3 18 C-3.33 19.32 -3.66 20.64 -4 22 C-4.99 22 -5.98 22 -7 22 C-7.28875 22.763125 -7.5775 23.52625 -7.875 24.3125 C-9 27 -9 27 -11 30 C-11.99 30 -12.98 30 -14 30 C-14.33 28.35 -14.66 26.7 -15 25 C-15.66 25 -16.32 25 -17 25 C-17 24.01 -17 23.02 -17 22 C-16.21625 21.38125 -15.4325 20.7625 -14.625 20.125 C-11.81916294 17.85360809 -11.03665668 16.39269458 -10 13 C-9.34 13 -8.68 13 -8 13 C-7.67 11.68 -7.34 10.36 -7 9 C-6.34 9 -5.68 9 -5 9 C-5 8.34 -5 7.68 -5 7 C-4.01 6.34 -3.02 5.68 -2 5 C-0.79549696 2.44816596 -0.79549696 2.44816596 0 0 Z " fill="#38A7DF" transform="translate(94,104)"/>
<path d="M0 0 C1.34905313 0.04232195 2.69793464 0.0903437 4.04663086 0.14282227 C5.10991859 0.17823875 5.10991859 0.17823875 6.19468689 0.21437073 C8.46714482 0.29117497 10.73927617 0.37512626 13.01147461 0.45922852 C14.5485678 0.51243248 16.08567711 0.56517297 17.62280273 0.61743164 C21.39846108 0.74593865 25.17359359 0.88409544 28.94897461 1.02172852 C28.94897461 10.92172852 28.94897461 20.82172852 28.94897461 31.02172852 C28.61897461 31.02172852 28.28897461 31.02172852 27.94897461 31.02172852 C27.94897461 21.45172852 27.94897461 11.88172852 27.94897461 2.02172852 C14.58397461 2.51672852 14.58397461 2.51672852 0.94897461 3.02172852 C2.26897461 4.34172852 3.58897461 5.66172852 4.94897461 7.02172852 C5.63543186 11.20911777 5.93222217 13.51275611 3.59741211 17.09594727 C2.11542309 18.82727567 0.59869312 20.45056803 -1.05102539 22.02172852 C-1.38102539 20.70172852 -1.71102539 19.38172852 -2.05102539 18.02172852 C-3.37102539 17.69172852 -4.69102539 17.36172852 -6.05102539 17.02172852 C-6.73852539 13.70922852 -6.73852539 13.70922852 -7.05102539 10.02172852 C-5.61352539 8.45922852 -5.61352539 8.45922852 -4.05102539 7.02172852 C-3.8842143 3.93825026 -3.8842143 3.93825026 -4.05102539 1.02172852 C-3.05102539 0.02172852 -3.05102539 0.02172852 0 0 Z " fill="#42A2E1" transform="translate(127.051025390625,15.978271484375)"/>
<path d="M0 0 C0.66 0 1.32 0 2 0 C2 0.66 2 1.32 2 2 C2.66 2 3.32 2 4 2 C4.33 1.34 4.66 0.68 5 0 C5 0.99 5 1.98 5 3 C6.32 3.66 7.64 4.32 9 5 C6.25 9.875 6.25 9.875 4 11 C3.67 11.99 3.34 12.98 3 14 C0.39757586 15.64820195 -0.86248779 16 -4 16 C-4 16.66 -4 17.32 -4 18 C-4.99 18 -5.98 18 -7 18 C-6.67 18.99 -6.34 19.98 -6 21 C-6.9375 23.6875 -6.9375 23.6875 -8 26 C-9.32 25.67 -10.64 25.34 -12 25 C-12 23.35 -12 21.7 -12 20 C-12.99 19.67 -13.98 19.34 -15 19 C-12.70363907 14.89072255 -10.24244855 11.40061677 -7 8 C-5.68 8 -4.36 8 -3 8 C-2.67 7.01 -2.34 6.02 -2 5 C-1.34 5 -0.68 5 0 5 C0 3.35 0 1.7 0 0 Z " fill="#35A0E9" transform="translate(130,62)"/>
<path d="M0 0 C4.10447392 0.51776621 5.95699523 2.64627444 8.75 5.5625 C9.54921875 6.38878906 10.3484375 7.21507813 11.171875 8.06640625 C11.77515625 8.70449219 12.3784375 9.34257813 13 10 C12.360625 10.28875 11.72125 10.5775 11.0625 10.875 C8.84793921 11.82823451 8.84793921 11.82823451 8 14 C7.34 14 6.68 14 6 14 C6 14.66 6 15.32 6 16 C4.68 16 3.36 16 2 16 C2.33 17.32 2.66 18.64 3 20 C-0.21043882 18.61811547 -2.04936365 17.07578097 -4.25 14.375 C-4.77078125 13.74335937 -5.2915625 13.11171875 -5.828125 12.4609375 C-6.21484375 11.97882813 -6.6015625 11.49671875 -7 11 C-6.1875 8.5625 -6.1875 8.5625 -5 6 C-4.01 5.67 -3.02 5.34 -2 5 C-0.78130071 2.49552484 -0.78130071 2.49552484 0 0 Z " fill="#359DEA" transform="translate(142,74)"/>
<path d="M0 0 C2.5 2.5 2.5 2.5 5 5 C5.928125 5.886875 6.85625 6.77375 7.8125 7.6875 C10 10 10 10 10 12 C7.525 11.505 7.525 11.505 5 11 C5 12.32 5 13.64 5 15 C4.38655243 16.68698082 3.72904086 18.35965807 3 20 C5.77260299 21.93798263 5.77260299 21.93798263 8 23 C7.67 24.65 7.34 26.3 7 28 C8.65 28.33 10.3 28.66 12 29 C12.33 29.99 12.66 30.98 13 32 C7.78221882 30.88190403 5.61334298 28.80297971 2.43359375 24.7890625 C0.90968606 22.81261629 0.90968606 22.81261629 -1.5 20.5625 C-4.69329435 17.28937329 -7.32698655 13.70180213 -10 10 C-8.68 10 -7.36 10 -6 10 C-6 10.66 -6 11.32 -6 12 C-5.01 12 -4.02 12 -3 12 C-3 11.34 -3 10.68 -3 10 C-2.34 10 -1.68 10 -1 10 C-1 9.01 -1 8.02 -1 7 C-0.01 7 0.98 7 2 7 C2.33 6.34 2.66 5.68 3 5 C2.34 5 1.68 5 1 5 C0.67 3.35 0.34 1.7 0 0 Z M8 20 C8.66 20 9.32 20 10 20 C10 20.66 10 21.32 10 22 C9.34 22 8.68 22 8 22 C8 21.34 8 20.68 8 20 Z " fill="#5DB3CD" transform="translate(33,130)"/>
<path d="M0 0 C1.1055189 0.93590504 2.20935453 1.87379858 3.3125 2.8125 C4.23482422 3.59560547 4.23482422 3.59560547 5.17578125 4.39453125 C6.85424679 5.87172469 8.43882034 7.40039131 10 9 C8.5140084 13.59306496 6.14985318 16.43569245 3 20 C-1.27990445 19.52445506 -3.12698311 17.01316405 -6 14 C-6.825 13.38125 -7.65 12.7625 -8.5 12.125 C-11.68861921 9.41467367 -13.66563032 6.46820638 -16 3 C-15.39671875 3.15339844 -14.7934375 3.30679687 -14.171875 3.46484375 C-11.79358035 4.0508624 -9.40412313 4.53253161 -7 5 C-6.87625 5.804375 -6.7525 6.60875 -6.625 7.4375 C-6.41875 8.283125 -6.2125 9.12875 -6 10 C-5.34 10.33 -4.68 10.66 -4 11 C-3.01 10.67 -2.02 10.34 -1 10 C-0.67 10.33 -0.34 10.66 0 11 C0.33 10.34 0.66 9.68 1 9 C0.34 8.67 -0.32 8.34 -1 8 C-0.01 7.67 0.98 7.34 2 7 C1.67 6.401875 1.34 5.80375 1 5.1875 C0 3 0 3 0 0 Z " fill="#49A8DE" transform="translate(93,23)"/>
<path d="M0 0 C2.95409701 1.37154504 5.44008376 2.98863724 8 5 C7.67 5.99 7.34 6.98 7 8 C6.67 8 6.34 8 6 8 C5.34 10.31 4.68 12.62 4 15 C3.01 15 2.02 15 1 15 C1 15.99 1 16.98 1 18 C0.34 18 -0.32 18 -1 18 C-1.33 18.99 -1.66 19.98 -2 21 C-3.98 20.34 -5.96 19.68 -8 19 C-8 17.68 -8 16.36 -8 15 C-8.99 15.33 -9.98 15.66 -11 16 C-11 15.34 -11 14.68 -11 14 C-9.68 14 -8.36 14 -7 14 C-6.773125 12.989375 -6.54625 11.97875 -6.3125 10.9375 C-5.09133139 6.56981665 -2.76115807 3.56044067 0 0 Z " fill="#349CEE" transform="translate(158,125)"/>
<path d="M0 0 C0.33 0 0.66 0 1 0 C1.02505615 0.70084717 1.0501123 1.40169434 1.07592773 2.1237793 C1.19226545 5.31185488 1.31482044 8.49966242 1.4375 11.6875 C1.47681641 12.79029297 1.51613281 13.89308594 1.55664062 15.02929688 C1.61948242 16.6293457 1.61948242 16.6293457 1.68359375 18.26171875 C1.72025146 19.24100342 1.75690918 20.22028809 1.79467773 21.22924805 C1.99233439 23.89655531 2.46067425 26.38453059 3 29 C3 29.99 3 30.98 3 32 C2.030625 32.433125 1.06125 32.86625 0.0625 33.3125 C-3.27731765 34.7014861 -3.27731765 34.7014861 -4 38 C-3.34 38 -2.68 38 -2 38 C-2 39.98 -2 41.96 -2 44 C-1.34 44 -0.68 44 0 44 C0.33 43.34 0.66 42.68 1 42 C1.33 42.99 1.66 43.98 2 45 C1.34 45 0.68 45 0 45 C0.99 46.65 1.98 48.3 3 50 C0.6875 49.375 0.6875 49.375 -2 48 C-3.0650015 46.03384339 -4.06833174 44.03273074 -5 42 C-5.99 41.34 -6.98 40.68 -8 40 C-9.1875 37.375 -9.1875 37.375 -10 35 C-8.515 34.505 -8.515 34.505 -7 34 C-7.495 32.515 -7.495 32.515 -8 31 C-9.65 30.67 -11.3 30.34 -13 30 C-13 29.01 -13 28.02 -13 27 C-9.535 26.505 -9.535 26.505 -6 26 C-6 26.66 -6 27.32 -6 28 C-4.35 28 -2.7 28 -1 28 C-0.67 18.76 -0.34 9.52 0 0 Z " fill="#339EEF" transform="translate(156,18)"/>
<path d="M0 0 C3 1 3 1 5 4 C5 5.66666667 5 7.33333333 5 9 C4.01 9.495 4.01 9.495 3 10 C2.27840576 11.64363134 1.60648579 13.31050386 1 15 C0.01 15 -0.98 15 -2 15 C-2.33 15.66 -2.66 16.32 -3 17 C-3.99 17 -4.98 17 -6 17 C-6 17.66 -6 18.32 -6 19 C-7.32 18.67 -8.64 18.34 -10 18 C-10 16.68 -10 15.36 -10 14 C-9.34 14 -8.68 14 -8 14 C-8 13.01 -8 12.02 -8 11 C-8.66 11 -9.32 11 -10 11 C-10 10.01 -10 9.02 -10 8 C-9.34 8 -8.68 8 -8 8 C-8 7.34 -8 6.68 -8 6 C-7.34 6 -6.68 6 -6 6 C-5.67 4.35 -5.34 2.7 -5 1 C-4.34 1 -3.68 1 -3 1 C-2.67 1.66 -2.34 2.32 -2 3 C-1.34 2.01 -0.68 1.02 0 0 Z " fill="#3AA7DD" transform="translate(88,66)"/>
<path d="M0 0 C6.80094539 5.60077856 10.78633896 14.59838413 13 23 C13.27126579 26.02658673 13.27989578 29.02558732 13.25 32.0625 C13.25773438 32.85205078 13.26546875 33.64160156 13.2734375 34.45507812 C13.25903006 38.75209837 12.98550203 42.08414878 11 46 C10.67 46 10.34 46 10 46 C9.95758277 43.66705225 9.95907063 41.33297433 10 39 C10.495 38.505 10.495 38.505 11 38 C10.96200774 35.8519758 10.84473342 33.70509867 10.6875 31.5625 C10.60886719 30.38816406 10.53023437 29.21382812 10.44921875 28.00390625 C10.28822955 24.89173023 10.28822955 24.89173023 8 23 C8.33 22.34 8.66 21.68 9 21 C9 19.68 9 18.36 9 17 C8.34 17 7.68 17 7 17 C6.01 14.69 5.02 12.38 4 10 C3.01 10 2.02 10 1 10 C-0.80411967 7.24075815 -1.0127245 6.11027897 -0.625 2.75 C-0.41875 1.8425 -0.2125 0.935 0 0 Z " fill="#5AA5E0" transform="translate(156,86)"/>
<path d="M0 0 C1.14088074 0.00022659 2.28176147 0.00045319 3.45721436 0.00068665 C4.68337463 0.0161705 5.90953491 0.03165436 7.17285156 0.04760742 C9.06212372 0.05397469 9.06212372 0.05397469 10.98956299 0.06047058 C14.33036194 0.07441496 17.6705424 0.10134692 21.01116943 0.13458252 C24.42308214 0.16532778 27.83505886 0.17898539 31.24707031 0.1940918 C37.93604305 0.22717803 44.62472411 0.27739093 51.31347656 0.34057617 C51.31347656 0.67057617 51.31347656 1.00057617 51.31347656 1.34057617 C23.09847656 1.83557617 23.09847656 1.83557617 -5.68652344 2.34057617 C-5.9437351 11.51900934 -5.9437351 11.51900934 -0.68652344 17.34057617 C0.62597656 19.71557617 0.62597656 19.71557617 1.31347656 21.34057617 C-3.61633297 19.33213525 -6.78055727 15.69952543 -9.68652344 11.34057617 C-10.02246094 9.40307617 -10.02246094 9.40307617 -10.06152344 7.34057617 C-10.08988281 6.65995117 -10.11824219 5.97932617 -10.14746094 5.27807617 C-9.68652344 3.34057617 -9.68652344 3.34057617 -8.01312256 1.74076843 C-5.12571927 0.0030734 -3.35675819 -0.02227937 0 0 Z " fill="#95D2E9" transform="translate(112.6865234375,3.659423828125)"/>
<path d="M0 0 C6.50498206 -0.36820653 6.50498206 -0.36820653 8.70245361 1.2663269 C10.99987294 4.3359467 10.50542299 8.18495122 10.546875 11.8828125 C10.56719788 12.77048309 10.58752075 13.65815369 10.60845947 14.57272339 C10.64871929 16.46061961 10.68186645 18.34867873 10.70849609 20.23681641 C10.74915227 23.06600788 10.8119465 25.89397894 10.87890625 28.72265625 C11.06074012 37.35483034 11.10468067 45.98844413 10.765625 54.6171875 C10.74311676 55.6566301 10.74311676 55.6566301 10.72015381 56.71707153 C10.54724856 60.01039388 10.16448592 61.78513217 8.13964844 64.43017578 C6 66 6 66 3 66.5 C-0.5944274 65.90092877 -1.73943528 64.7822335 -4 62 C-1.03 62.66 1.94 63.32 5 64 C5 63.34 5 62.68 5 62 C5.66 62 6.32 62 7 62 C7 61.34 7 60.68 7 60 C7.66 60 8.32 60 9 60 C8.90772598 52.525 8.80041931 45.0503246 8.68261719 37.57568359 C8.64431434 35.03243924 8.6094638 32.48914048 8.578125 29.94580078 C8.53250338 26.29179423 8.47450322 22.63816273 8.4140625 18.984375 C8.40251129 17.84570984 8.39096008 16.70704468 8.37905884 15.53387451 C8.35918915 14.47307678 8.33931946 13.41227905 8.31884766 12.31933594 C8.30552399 11.38667908 8.29220032 10.45402222 8.2784729 9.49310303 C7.98158807 6.83516228 7.4913001 5.2148604 6 3 C2.95800528 1.70768358 2.95800528 1.70768358 0 1 C0 0.67 0 0.34 0 0 Z " fill="#5996C6" transform="translate(159,5)"/>
<path d="M0 0 C15.84 0.495 15.84 0.495 32 1 C32 10.9 32 20.8 32 31 C31.67 31 31.34 31 31 31 C31 21.43 31 11.86 31 2 C17.635 2.495 17.635 2.495 4 3 C5.32 4.32 6.64 5.64 8 7 C7.75 9.25 7.75 9.25 7 11 C6.34 9.68 5.68 8.36 5 7 C4.01 7 3.02 7 2 7 C2 6.34 2 5.68 2 5 C1.01 4.67 0.02 4.34 -1 4 C-0.67 2.68 -0.34 1.36 0 0 Z " fill="#86C0E2" transform="translate(124,16)"/>
<path d="M0 0 C0.99 0.33 1.98 0.66 3 1 C0.00604534 5.94653379 -3.65650817 10.01503037 -7.5546875 14.2734375 C-12.95842196 20.29868774 -17.94969451 26.67860639 -23 33 C-23.66 32.67 -24.32 32.34 -25 32 C-24.25 29.5625 -24.25 29.5625 -23 27 C-22.34 26.855625 -21.68 26.71125 -21 26.5625 C-20.34 26.376875 -19.68 26.19125 -19 26 C-18.67 25.01 -18.34 24.02 -18 23 C-17.67 22.01 -17.34 21.02 -17 20 C-14.875 19.125 -14.875 19.125 -13 19 C-12.896875 18.360625 -12.79375 17.72125 -12.6875 17.0625 C-12.3471875 16.0415625 -12.3471875 16.0415625 -12 15 C-11.01 14.67 -10.02 14.34 -9 14 C-9 13.01 -9 12.02 -9 11 C-8.34 11 -7.68 11 -7 11 C-7 10.01 -7 9.02 -7 8 C-2.65714286 4 -2.65714286 4 0 4 C0 2.68 0 1.36 0 0 Z " fill="#6CB6D0" transform="translate(80,87)"/>
<path d="M0 0 C2.875 0.25 2.875 0.25 6 1 C7.375 3.0625 7.375 3.0625 8 5 C4.25 6.125 4.25 6.125 2 5 C2.165 6.258125 2.33 7.51625 2.5 8.8125 C2.82158241 11.26456585 3 13.51650694 3 16 C-1.875 11.375 -1.875 11.375 -3 8 C-3.99 7.67 -4.98 7.34 -6 7 C-5.34 5.68 -4.68 4.36 -4 3 C-2.68 3.33 -1.36 3.66 0 4 C0 2.68 0 1.36 0 0 Z " fill="#41AACD" transform="translate(45,101)"/>
<path d="M0 0 C1.1055189 0.93590504 2.20935453 1.87379858 3.3125 2.8125 C3.92738281 3.33457031 4.54226562 3.85664063 5.17578125 4.39453125 C6.85424679 5.87172469 8.43882034 7.40039131 10 9 C8.50897439 13.60862461 6.30545582 16.53330244 3 20 C2.01 20 1.02 20 0 20 C0.33 18.68 0.66 17.36 1 16 C2.32 15.67 3.64 15.34 5 15 C5 14.34 5 13.68 5 13 C4.34 12.67 3.68 12.34 3 12 C3.66 11.67 4.32 11.34 5 11 C5.33 10.01 5.66 9.02 6 8 C4.68 8 3.36 8 2 8 C1.67 9.32 1.34 10.64 1 12 C1 11.01 1 10.02 1 9 C0.34 8.67 -0.32 8.34 -1 8 C-0.01 7.67 0.98 7.34 2 7 C1.67 6.401875 1.34 5.80375 1 5.1875 C0 3 0 3 0 0 Z " fill="#68B1D8" transform="translate(93,23)"/>
<path d="M0 0 C0.66 0.33 1.32 0.66 2 1 C1.34 1.66 0.68 2.32 0 3 C0.33 3.66 0.66 4.32 1 5 C0.236875 5.598125 -0.52625 6.19625 -1.3125 6.8125 C-3.91570291 8.8280426 -3.91570291 8.8280426 -5.625 10.75 C-7 12 -7 12 -10 12 C-10.144375 12.804375 -10.28875 13.60875 -10.4375 14.4375 C-11 17 -11 17 -12 18 C-19.45864662 18.36090226 -19.45864662 18.36090226 -23 16 C-22.67 15.34 -22.34 14.68 -22 14 C-20.515 14.99 -20.515 14.99 -19 16 C-15.569275 15.88861282 -14.25518961 15.235963 -11.71875 12.890625 C-10.62046875 11.58351562 -10.62046875 11.58351562 -9.5 10.25 C-8.72785156 9.35023438 -7.95570312 8.45046875 -7.16015625 7.5234375 C-6.44730469 6.69070312 -5.73445313 5.85796875 -5 5 C-3.36852515 3.2894005 -1.69879502 1.64399518 0 0 Z " fill="#58ADCC" transform="translate(70,132)"/>
<path d="M0 0 C2.37948772 0.17625835 3.70225849 0.69719773 5.37890625 2.40234375 C6.62115486 3.90649092 7.81376056 5.45129851 9 7 C7.02 7.99 7.02 7.99 5 9 C4.67 7.68 4.34 6.36 4 5 C2.35 4.67 0.7 4.34 -1 4 C-1.33 4.99 -1.66 5.98 -2 7 C-2.66 7 -3.32 7 -4 7 C-2.35821735 11.77609498 0.26546702 15.79382904 3 20 C-0.21043882 18.61811547 -2.04936365 17.07578097 -4.25 14.375 C-4.77078125 13.74335937 -5.2915625 13.11171875 -5.828125 12.4609375 C-6.21484375 11.97882813 -6.6015625 11.49671875 -7 11 C-6.1875 8.5625 -6.1875 8.5625 -5 6 C-4.01 5.67 -3.02 5.34 -2 5 C-0.78130071 2.49552484 -0.78130071 2.49552484 0 0 Z " fill="#6CAED8" transform="translate(142,74)"/>
<path d="M0 0 C0.66 0.33 1.32 0.66 2 1 C1.43152344 1.61746094 0.86304687 2.23492187 0.27734375 2.87109375 C-4.7566864 8.39255921 -9.51227879 14.0259917 -14 20 C-14.33 19.01 -14.66 18.02 -15 17 C-13.70951192 14.97209016 -12.36821051 12.97630407 -11 11 C-10.49614644 9.75974507 -10.01640611 8.50939268 -9.5625 7.25 C-8 4 -8 4 -5.5 2.6875 C-4.675 2.460625 -3.85 2.23375 -3 2 C-2.01 1.34 -1.02 0.68 0 0 Z " fill="#5EAFD6" transform="translate(94,122)"/>
<path d="M0 0 C0.02705308 2.41674224 0.04686438 4.8331794 0.0625 7.25 C0.07087891 7.93191406 0.07925781 8.61382812 0.08789062 9.31640625 C0.1044924 12.73637221 -0.16053089 15.70262586 -1 19 C-0.67 19.99 -0.34 20.98 0 22 C-0.33 22.66 -0.66 23.32 -1 24 C0.32 24.33 1.64 24.66 3 25 C1.6875 26.5 1.6875 26.5 0 28 C-0.99 28 -1.98 28 -3 28 C-3 19.09 -3 10.18 -3 1 C-1 0 -1 0 0 0 Z " fill="#6EB9C9" transform="translate(3,56)"/>
<path d="M0 0 C1.32 0 2.64 0 4 0 C4.304 9.12 4.304 9.12 2 12 C0.0625 12.625 0.0625 12.625 -2 13 C-2.99 13.66 -3.98 14.32 -5 15 C-5 14.34 -5 13.68 -5 13 C-5.66 12.67 -6.32 12.34 -7 12 C-5.71937515 10.2925002 -4.38232443 8.62626404 -3 7 C-2.34 7 -1.68 7 -1 7 C0.10636395 4.60931266 0.10636395 4.60931266 1 2 C0.67 1.34 0.34 0.68 0 0 Z " fill="#4CA4DA" transform="translate(114,25)"/>
<path d="M0 0 C0.66 0.33 1.32 0.66 2 1 C0.20445635 8.743282 -3.61221311 14.2135652 -9 20 C-9.33 20 -9.66 20 -10 20 C-10.25 17.25 -10.25 17.25 -10 14 C-8.0625 11.8125 -8.0625 11.8125 -6 10 C-5.67 9.01 -5.34 8.02 -5 7 C-4.01 7.33 -3.02 7.66 -2 8 C-1.855625 6.865625 -1.71125 5.73125 -1.5625 4.5625 C-1 1 -1 1 0 0 Z " fill="#5AA8E3" transform="translate(164,132)"/>
<path d="M0 0 C0.33 0 0.66 0 1 0 C1.02505615 0.70084717 1.0501123 1.40169434 1.07592773 2.1237793 C1.19226545 5.31185488 1.31482044 8.49966242 1.4375 11.6875 C1.47681641 12.79029297 1.51613281 13.89308594 1.55664062 15.02929688 C1.61948242 16.6293457 1.61948242 16.6293457 1.68359375 18.26171875 C1.72025146 19.24100342 1.75690918 20.22028809 1.79467773 21.22924805 C1.99233439 23.89655531 2.46067425 26.38453059 3 29 C3 29.99 3 30.98 3 32 C1.02 32.495 1.02 32.495 -1 33 C-1.495 31.515 -1.495 31.515 -2 30 C-2.99 30 -3.98 30 -5 30 C-4.67 29.34 -4.34 28.68 -4 28 C-3.01 28 -2.02 28 -1 28 C-0.67 18.76 -0.34 9.52 0 0 Z " fill="#368CD0" transform="translate(156,18)"/>
<path d="M0 0 C0.33 0.99 0.66 1.98 1 3 C0.01 4.485 0.01 4.485 -1 6 C-1.66 6 -2.32 6 -3 6 C-3.20625 6.598125 -3.4125 7.19625 -3.625 7.8125 C-5.55910129 10.88947932 -7.64642035 11.72563973 -11 13 C-13.375 12.6875 -13.375 12.6875 -15 12 C-14.67 11.01 -14.34 10.02 -14 9 C-12.35 9.33 -10.7 9.66 -9 10 C-9 8.35 -9 6.7 -9 5 C-7.35 5.33 -5.7 5.66 -4 6 C-4 5.34 -4 4.68 -4 4 C-3.01 4 -2.02 4 -1 4 C-0.67 2.68 -0.34 1.36 0 0 Z " fill="#57ABD6" transform="translate(102,111)"/>
<path d="M0 0 C0 0.33 0 0.66 0 1 C-0.87269531 1.24878906 -1.74539062 1.49757813 -2.64453125 1.75390625 C-6.18171268 3.06748119 -8.67547217 4.68162978 -11.6875 6.9375 C-12.61949219 7.62714844 -13.55148438 8.31679688 -14.51171875 9.02734375 C-16.49506869 10.59970124 -18.27337004 12.1578764 -20 14 C-19.875 10.6875 -19.875 10.6875 -19 7 C-15.78857666 4.83577992 -13.87553592 4 -10 4 C-10 3.01 -10 2.02 -10 1 C-6.52674819 -0.1577506 -3.63932552 -0.06866652 0 0 Z " fill="#7EBED3" transform="translate(47,18)"/>
<path d="M0 0 C1 2 1 2 0.1875 4.5625 C-1 7 -1 7 -3 8 C-3.309375 8.78375 -3.61875 9.5675 -3.9375 10.375 C-4.99023648 12.97587837 -5.822667 14.27627805 -8 16 C-8.66 16 -9.32 16 -10 16 C-8.70931268 11.36711185 -6.9561156 8.30246056 -3.875 4.625 C-3.15054688 3.75101562 -2.42609375 2.87703125 -1.6796875 1.9765625 C-1.12539062 1.32429688 -0.57109375 0.67203125 0 0 Z " fill="#47A6CE" transform="translate(87,110)"/>
<path d="M0 0 C5.26964527 2.63482263 8.97903554 6.79943911 13 11 C11.125 12.0625 11.125 12.0625 9 13 C8.34 12.67 7.68 12.34 7 12 C6.896875 11.38125 6.79375 10.7625 6.6875 10.125 C5.70040743 7.07398661 3.70839329 6.5278116 1 5 C1 4.34 1 3.68 1 3 C0.34 2.67 -0.32 2.34 -1 2 C-0.67 1.34 -0.34 0.68 0 0 Z " fill="#6CB6D6" transform="translate(80,11)"/>
<path d="M0 0 C0.33 0 0.66 0 1 0 C1.08117951 2.41734542 1.14056926 4.83194949 1.1875 7.25 C1.22520508 8.27287109 1.22520508 8.27287109 1.26367188 9.31640625 C1.3263547 13.62062701 0.89179178 15.81902905 -2 19 C-2.72351427 20.98014432 -3.40265389 22.97821315 -4 25 C-5.32 24.67 -6.64 24.34 -8 24 C-7.21625 22.96875 -6.4325 21.9375 -5.625 20.875 C-1.00147467 14.31847538 -0.52936781 7.82907125 0 0 Z " fill="#78B6DF" transform="translate(155,114)"/>
<path d="M0 0 C1 3 1 3 0.125 4.875 C-0.24625 5.57625 -0.6175 6.2775 -1 7 C-1.38218767 8.65614657 -1.71395102 10.32457024 -2 12 C-2.57352572 15.35922209 -3.34103082 18.01385547 -5 21 C-5.6422101 12.56564064 -4.93246104 6.97590919 0 0 Z " fill="#7CBECE" transform="translate(5,89)"/>
<path d="M0 0 C1.32 0.66 2.64 1.32 4 2 C3.67 3.98 3.34 5.96 3 8 C0.625 8.125 0.625 8.125 -2 8 C-2.66 7.34 -3.32 6.68 -4 6 C-4 4.68 -4 3.36 -4 2 C-3.01 1.67 -2.02 1.34 -1 1 C-0.67 0.67 -0.34 0.34 0 0 Z M-3 4 C-2.67 4.66 -2.34 5.32 -2 6 C-1.67 5.34 -1.34 4.68 -1 4 C-1.66 4 -2.32 4 -3 4 Z " fill="#43ADCD" transform="translate(31,84)"/>
<path d="M0 0 C0.33 0.99 0.66 1.98 1 3 C0.01 3.33 -0.98 3.66 -2 4 C-2.04125 4.680625 -2.0825 5.36125 -2.125 6.0625 C-3.37387681 10.25515787 -6.04026731 12.8592439 -9 16 C-9.66 15.67 -10.32 15.34 -11 15 C-9.92333797 13.2458877 -8.83836661 11.49687413 -7.75 9.75 C-7.14671875 8.77546875 -6.5434375 7.8009375 -5.921875 6.796875 C-4.13945558 4.20294755 -2.29898372 2.13622381 0 0 Z " fill="#7EBDCB" transform="translate(20,18)"/>
<path d="M0 0 C0.66 0 1.32 0 2 0 C2.05413245 2.89608593 2.09373641 5.79115195 2.125 8.6875 C2.15013672 9.91243164 2.15013672 9.91243164 2.17578125 11.16210938 C2.2114802 15.57092929 2.07580814 18.98731576 0 23 C-0.33 23 -0.66 23 -1 23 C-1.04241723 20.66705225 -1.04092937 18.33297433 -1 16 C-0.67 15.67 -0.34 15.34 0 15 C0.07313567 12.46950598 0.09247527 9.96695163 0.0625 7.4375 C0.05798828 6.72658203 0.05347656 6.01566406 0.04882812 5.28320312 C0.03700864 3.52209987 0.01907263 1.76103964 0 0 Z " fill="#64A3D5" transform="translate(167,109)"/>
<path d="M0 0 C0.33 0.99 0.66 1.98 1 3 C-0.3984375 5.41015625 -0.3984375 5.41015625 -2.375 8.0625 C-4.89507622 11.40431208 -4.89507622 11.40431208 -7 15 C-7.66 15 -8.32 15 -9 15 C-9.33 14.01 -9.66 13.02 -10 12 C-8.42128179 9.79569625 -6.85238363 7.83057597 -5.0625 5.8125 C-4.34030273 4.97428711 -4.34030273 4.97428711 -3.60351562 4.11914062 C-2.41142402 2.73820283 -1.20685625 1.36805321 0 0 Z " fill="#6AB3D9" transform="translate(102,43)"/>
<path d="M0 0 C0.556875 0.144375 1.11375 0.28875 1.6875 0.4375 C4.11384195 1.02769128 6.54906345 1.523429 9 2 C9.12375 2.763125 9.2475 3.52625 9.375 4.3125 C9.88102792 7.20267136 9.88102792 7.20267136 12 10 C9 10 9 10 6.5625 7.8125 C4.25716434 5.28225355 2.09014094 2.70944196 0 0 Z " fill="#62ADD1" transform="translate(77,26)"/>
<path d="M0 0 C0.66 0 1.32 0 2 0 C2 0.66 2 1.32 2 2 C1.34 2 0.68 2 0 2 C0 1.34 0 0.68 0 0 Z M-4 1 C-2.68 1.66 -1.36 2.32 0 3 C-0.33 4.65 -0.66 6.3 -1 8 C0.65 8.33 2.3 8.66 4 9 C4.33 9.99 4.66 10.98 5 12 C1.35060187 11.08765047 -0.71592813 10.27678798 -3.4375 7.625 C-5 5 -5 5 -4.75 2.6875 C-4.5025 2.130625 -4.255 1.57375 -4 1 Z " fill="#54B4CE" transform="translate(41,150)"/>
<path d="M0 0 C1.26041675 2.5208335 0.66225891 3.35096436 0 6 C0.33 6.66 0.66 7.32 1 8 C-2 9 -5 10 -8 11 C-6.52670958 5.99081256 -3.72484762 3.48192278 0 0 Z " fill="#6BB4D0" transform="translate(80,150)"/>
<path d="M0 0 C0.33 0.99 0.66 1.98 1 3 C-0.8125 6.1875 -0.8125 6.1875 -3 9 C-3.66 9 -4.32 9 -5 9 C-5.33 10.32 -5.66 11.64 -6 13 C-7.32 12.67 -8.64 12.34 -10 12 C-6.7 8.04 -3.4 4.08 0 0 Z " fill="#6CB4D1" transform="translate(65,87)"/>
<path d="M0 0 C0.66 0.33 1.32 0.66 2 1 C0.50441148 5.62272814 -1.68171219 8.52369849 -5 12 C-7.3125 12.875 -7.3125 12.875 -9 13 C-6.39163722 8.36291061 -3.22997426 4.21255542 0 0 Z " fill="#6CB3D8" transform="translate(106,86)"/>
<path d="M0 0 C0.99 0.33 1.98 0.66 3 1 C-1.37474527 3.71943625 -4.51464988 5.13746884 -9.6875 5.0625 C-10.89986328 5.04896484 -10.89986328 5.04896484 -12.13671875 5.03515625 C-13.05904297 5.01775391 -13.05904297 5.01775391 -14 5 C-14 4.34 -14 3.68 -14 3 C-9.23692563 2.04738513 -4.8333472 1.91666643 0 2 C0 1.34 0 0.68 0 0 Z " fill="#6CB0C9" transform="translate(62,158)"/>
<path d="M0 0 C1.65 1.65 3.3 3.3 5 5 C2.50907189 6.24546405 1.58919267 5.7767578 -1 5 C-0.67 6.32 -0.34 7.64 0 9 C-0.99 9 -1.98 9 -3 9 C-3.66 8.34 -4.32 7.68 -5 7 C-3.35 4.69 -1.7 2.38 0 0 Z " fill="#5EB7D5" transform="translate(46,96)"/>
<path d="M0 0 C4.08851671 1.3628389 5.54626098 3.52386972 8 7 C7.8125 9.375 7.8125 9.375 7 11 C6.34 9.68 5.68 8.36 5 7 C4.01 7 3.02 7 2 7 C2 6.34 2 5.68 2 5 C1.01 4.67 0.02 4.34 -1 4 C-0.67 2.68 -0.34 1.36 0 0 Z " fill="#69B2DE" transform="translate(124,16)"/>
<path d="M0 0 C0.58265625 0.22558594 1.1653125 0.45117188 1.765625 0.68359375 C1.105625 2.33359375 0.445625 3.98359375 -0.234375 5.68359375 C-1.554375 5.35359375 -2.874375 5.02359375 -4.234375 4.68359375 C-4.564375 5.67359375 -4.894375 6.66359375 -5.234375 7.68359375 C-6.554375 7.02359375 -7.874375 6.36359375 -9.234375 5.68359375 C-8.16544282 4.64769037 -7.07859012 3.63025433 -5.984375 2.62109375 C-5.38109375 2.05261719 -4.7778125 1.48414063 -4.15625 0.8984375 C-2.234375 -0.31640625 -2.234375 -0.31640625 0 0 Z " fill="#6CB8CF" transform="translate(30.234375,11.31640625)"/>
<path d="M0 0 C1 2 1 2 1.25 4.125 C2.32994641 8.26479459 4.62986803 11.47541261 7 15 C3.78956118 13.61811547 1.95063635 12.07578097 -0.25 9.375 C-0.77078125 8.74335937 -1.2915625 8.11171875 -1.828125 7.4609375 C-2.21484375 6.97882813 -2.6015625 6.49671875 -3 6 C-1.125 1.125 -1.125 1.125 0 0 Z " fill="#7AB7DC" transform="translate(138,79)"/>
<path d="M0 0 C-4.07523049 3.42319361 -8.57062751 5.84493367 -13.9375 6.1875 C-14.9584375 6.0946875 -14.9584375 6.0946875 -16 6 C-16 5.34 -16 4.68 -16 4 C-14.39125 3.566875 -14.39125 3.566875 -12.75 3.125 C-9.19285195 2.19015472 -9.19285195 2.19015472 -6.875 0.875 C-4.49603029 -0.23518586 -2.59269691 -0.14403872 0 0 Z " fill="#76B7E0" transform="translate(148,156)"/>
<path d="M0 0 C0.66 0 1.32 0 2 0 C2 0.99 2 1.98 2 3 C4.64 3 7.28 3 10 3 C10.33 3.66 10.66 4.32 11 5 C7.37 5.33 3.74 5.66 0 6 C0 4.02 0 2.04 0 0 Z " fill="#48ADC1" transform="translate(16,89)"/>
<path d="M0 0 C2.375 2 2.375 2 4 4 C3.01 4.495 3.01 4.495 2 5 C1.34 4.67 0.68 4.34 0 4 C0 3.34 0 2.68 0 2 C-3.35433109 2.94933899 -6.69246505 3.89748835 -10 5 C-7.70638175 -0.07872613 -5.55185801 -0.5551858 0 0 Z " fill="#7DB6DC" transform="translate(150,42)"/>
<path d="M0 0 C0.33 0.66 0.66 1.32 1 2 C-0.55555556 6.55555556 -0.55555556 6.55555556 -2 8 C-9.45864662 8.36090226 -9.45864662 8.36090226 -13 6 C-12.67 5.34 -12.34 4.68 -12 4 C-10.515 4.99 -10.515 4.99 -9 6 C-6.48952515 6.06546898 -6.48952515 6.06546898 -4 5 C-1.68392126 2.54366927 -1.68392126 2.54366927 0 0 Z " fill="#90CADE" transform="translate(60,142)"/>
<path d="M0 0 C1 2 1 2 0.375 4.3125 C-1.26624041 7.52037899 -3.36337053 9.57152549 -6 12 C-6.99 11.67 -7.98 11.34 -9 11 C-6.03 7.37 -3.06 3.74 0 0 Z " fill="#6AACD6" transform="translate(123,66)"/>
<path d="M0 0 C0.99 0 1.98 0 3 0 C1.84826645 2.46800047 0.95216435 4.04783565 -1 6 C-3.875 6.375 -3.875 6.375 -7 6 C-9.375 4 -9.375 4 -11 2 C-6.545 2.99 -6.545 2.99 -2 4 C-2 3.34 -2 2.68 -2 2 C-1.34 2 -0.68 2 0 2 C0 1.34 0 0.68 0 0 Z " fill="#89BEE1" transform="translate(166,65)"/>
<path d="M0 0 C1.65 0.33 3.3 0.66 5 1 C3.5682479 6.01113235 1.01554307 7.94469549 -3 11 C-3 8 -3 8 -1.5 6.0625 C0.39211447 3.88588856 0.39211447 3.88588856 0 0 Z " fill="#51A1D4" transform="translate(119,37)"/>
<path d="M0 0 C0.66 0 1.32 0 2 0 C1.41463247 3.66060821 -0.083239 5.54535164 -2.5625 8.25 C-3.20316406 8.95640625 -3.84382813 9.6628125 -4.50390625 10.390625 C-4.99761719 10.92171875 -5.49132812 11.4528125 -6 12 C-6.33 11.01 -6.66 10.02 -7 9 C-6.01 8.67 -5.02 8.34 -4 8 C-3.32843384 6.06381575 -3.32843384 6.06381575 -3 4 C-2.67 3.34 -2.34 2.68 -2 2 C-1.34 2 -0.68 2 0 2 C0 1.34 0 0.68 0 0 Z " fill="#5FAACE" transform="translate(97,67)"/>
<path d="M0 0 C0 3.11227195 -0.45627049 5.94152152 -1 9 C-1.66 9 -2.32 9 -3 9 C-3.33 9.66 -3.66 10.32 -4 11 C-4.85394079 8.01120724 -5.07700926 6.28236729 -4.25 3.25 C-3 1 -3 1 0 0 Z " fill="#57AFC0" transform="translate(8,40)"/>
<path d="M0 0 C1.875 0.3125 1.875 0.3125 4 1 C4.66 1.99 5.32 2.98 6 4 C5.360625 4.12375 4.72125 4.2475 4.0625 4.375 C3.0415625 4.684375 3.0415625 4.684375 2 5 C1.67 5.66 1.34 6.32 1 7 C0.01 7 -0.98 7 -2 7 C-1.42415568 4.61435923 -0.77772405 2.33317216 0 0 Z " fill="#52A6E6" transform="translate(149,81)"/>
<path d="M0 0 C0.33 1.32 0.66 2.64 1 4 C0.34 4 -0.32 4 -1 4 C-1.66 5.98 -2.32 7.96 -3 10 C-4.65 10.33 -6.3 10.66 -8 11 C-5.50127818 7.1626772 -2.9156164 3.54039134 0 0 Z " fill="#78BCD2" transform="translate(74,76)"/>
<path d="M0 0 C6.48252688 -0.36693548 6.48252688 -0.36693548 8.71875 1.21875 C10.3746715 3.52088476 10.3094704 4.88218083 10.1875 7.6875 C10.16042969 8.49574219 10.13335937 9.30398438 10.10546875 10.13671875 C10.07066406 10.75160156 10.03585938 11.36648437 10 12 C9.67 12 9.34 12 9 12 C8.77957031 11.06027344 8.77957031 11.06027344 8.5546875 10.1015625 C7.86616966 7.59282507 7.16286191 5.3299834 6 3 C2.97115156 1.31963489 2.97115156 1.31963489 0 1 C0 0.67 0 0.34 0 0 Z " fill="#61A1D5" transform="translate(159,5)"/>
<path d="M0 0 C0.61617187 0.31710938 1.23234375 0.63421875 1.8671875 0.9609375 C4.58336211 2.28420205 6.97539002 3 10 3 C10 4.65 10 6.3 10 8 C6.40094092 7.44449305 5.00090201 6.25112752 2.75 3.4375 C2.22921875 2.79683594 1.7084375 2.15617187 1.171875 1.49609375 C0.78515625 1.00238281 0.3984375 0.50867188 0 0 Z " fill="#75BDCF" transform="translate(28,97)"/>
<path d="M0 0 C0.66 0.66 1.32 1.32 2 2 C1.66555164 5.34448359 0.21127671 7.52337009 -2 10 C-2.66 10 -3.32 10 -4 10 C-4.33 10.99 -4.66 11.98 -5 13 C-5.33 12.01 -5.66 11.02 -6 10 C-5.01 9.67 -4.02 9.34 -3 9 C-2.37907282 7.18703385 -2.37907282 7.18703385 -2 5 C-1.3530635 3.3255761 -0.69040574 1.65697379 0 0 Z " fill="#6FAFDF" transform="translate(139,63)"/>
<path d="M0 0 C1.32 0.33 2.64 0.66 4 1 C3.01 2.485 3.01 2.485 2 4 C1.34 4 0.68 4 0 4 C-0.28875 4.804375 -0.5775 5.60875 -0.875 6.4375 C-2 9 -2 9 -4 10 C-4 8.35 -4 6.7 -4 5 C-3.01 5 -2.02 5 -1 5 C-0.67 3.35 -0.34 1.7 0 0 Z " fill="#6BB5D2" transform="translate(74,143)"/>
<path d="M0 0 C0.33 1.32 0.66 2.64 1 4 C-1.25 6.5625 -1.25 6.5625 -4 9 C-4.598125 9.598125 -5.19625 10.19625 -5.8125 10.8125 C-6.204375 11.204375 -6.59625 11.59625 -7 12 C-7.66 11.67 -8.32 11.34 -9 11 C-6.03 7.37 -3.06 3.74 0 0 Z " fill="#78B7DD" transform="translate(138,48)"/>
<path d="M0 0 C2.5 1.8125 2.5 1.8125 5 4 C5 4.99 5 5.98 5 7 C4.01 7.495 4.01 7.495 3 8 C1.86649466 10.01669827 1.86649466 10.01669827 1 12 C1 11.01 1 10.02 1 9 C0.34 8.67 -0.32 8.34 -1 8 C-0.01 7.67 0.98 7.34 2 7 C1.67 6.401875 1.34 5.80375 1 5.1875 C0 3 0 3 0 0 Z " fill="#5AB0DB" transform="translate(93,23)"/>
<path d="M0 0 C1.32 0.33 2.64 0.66 4 1 C0.25 6.875 0.25 6.875 -2 8 C-2.33 6.35 -2.66 4.7 -3 3 C-2.01 3 -1.02 3 0 3 C0 2.01 0 1.02 0 0 Z " fill="#69B5D7" transform="translate(85,80)"/>
<path d="M0 0 C4 4 4 4 5.375 5.6875 C7.72801437 7.5880116 10.05092663 7.67232518 13 8 C13 8.33 13 8.66 13 9 C8.72778841 9.42722116 5.95674192 9.39896684 2.5625 6.75 C0 4 0 4 0 0 Z " fill="#54A5BF" transform="translate(43,142)"/>
<path d="M0 0 C1 2 1 2 0.25 4.5 C-1 7 -1 7 -4 9 C-4.99 8.67 -5.98 8.34 -7 8 C-4.69 5.36 -2.38 2.72 0 0 Z " fill="#72BBD7" transform="translate(87,110)"/>
<path d="M0 0 C3.69418201 1.231394 5.35109746 3.20791354 8 6 C7.67 6.66 7.34 7.32 7 8 C1.21538462 4.55384615 1.21538462 4.55384615 0.125 1.75 C0.08375 1.1725 0.0425 0.595 0 0 Z " fill="#70B3E1" transform="translate(146,57)"/>
<path d="M0 0 C0.99 0.33 1.98 0.66 3 1 C0.68462045 4.72114571 -1.28579473 7.61229661 -5 10 C-4.75 8.125 -4.75 8.125 -4 6 C-1.9375 4.75 -1.9375 4.75 0 4 C0 2.68 0 1.36 0 0 Z " fill="#72B5D6" transform="translate(80,87)"/>
<path d="M0 0 C1.67542976 0.28604898 3.34385343 0.61781233 5 1 C4.67 2.98 4.34 4.96 4 7 C3.01 7 2.02 7 1 7 C1.33 5.35 1.66 3.7 2 2 C1.01 1.67 0.02 1.34 -1 1 C-0.67 0.67 -0.34 0.34 0 0 Z " fill="#3998E5" transform="translate(151,85)"/>
<path d="M0 0 C0.66 0 1.32 0 2 0 C2 0.66 2 1.32 2 2 C2.66 2 3.32 2 4 2 C4.33 1.34 4.66 0.68 5 0 C5.33 0.99 5.66 1.98 6 3 C5.34 3 4.68 3 4 3 C4.99 4.65 5.98 6.3 7 8 C4.625 7.375 4.625 7.375 2 6 C0.6875 2.875 0.6875 2.875 0 0 Z " fill="#389AE3" transform="translate(152,60)"/>
<path d="M0 0 C4.99044346 1.6185222 6.78631596 3.70038814 9.1875 8.25 C9.455625 8.8275 9.72375 9.405 10 10 C6.17377257 8.4411666 3.74852621 6.04566418 1 3 C0.67 2.01 0.34 1.02 0 0 Z " fill="#88C1DC" transform="translate(104,15)"/>
<path d="M0 0 C0.99 0 1.98 0 3 0 C3 0.66 3 1.32 3 2 C3.66 2.33 4.32 2.66 5 3 C6.36244796 4.64295195 7.69864875 6.30824337 9 8 C8.01 8 7.02 8 6 8 C4.39453125 6.25 4.39453125 6.25 2.8125 4 C2.28269531 3.2575 1.75289062 2.515 1.20703125 1.75 C0.80871094 1.1725 0.41039062 0.595 0 0 Z " fill="#75B5D0" transform="translate(39,109)"/>
<path d="M0 0 C0.99 0 1.98 0 3 0 C2.34 1.32 1.68 2.64 1 4 C-0.32 4 -1.64 4 -3 4 C-3 4.66 -3 5.32 -3 6 C-3.99 6 -4.98 6 -6 6 C-6 5.34 -6 4.68 -6 4 C-4 2.375 -4 2.375 -2 1 C-2 1.66 -2 2.32 -2 3 C-1.34 3 -0.68 3 0 3 C0 2.01 0 1.02 0 0 Z " fill="#4EA5C7" transform="translate(65,154)"/>
<path d="M0 0 C0 4.38968456 -2.12805101 5.76905739 -5 9 C-6 6 -6 6 -4.75 3.375 C-3 1 -3 1 0 0 Z " fill="#81BFD6" transform="translate(85,133)"/>
<path d="M0 0 C2.64752004 2.57784846 4.94432065 4.91648098 7 8 C6.01 8.33 5.02 8.66 4 9 C0 2.25 0 2.25 0 0 Z " fill="#7BC0D5" transform="translate(39,88)"/>
<path d="M0 0 C0.66 0 1.32 0 2 0 C2 0.66 2 1.32 2 2 C2.66 2 3.32 2 4 2 C3.67 2.99 3.34 3.98 3 5 C2.01 4.67 1.02 4.34 0 4 C0 4.66 0 5.32 0 6 C-0.66 6 -1.32 6 -2 6 C-1.49396008 3.83125748 -1.00016187 2.00032373 0 0 Z " fill="#2FA0F4" transform="translate(148,146)"/>
<path d="M0 0 C0.33 0.66 0.66 1.32 1 2 C0.34 2 -0.32 2 -1 2 C-0.67 2.99 -0.34 3.98 0 5 C-1 6 -1 6 -4.5625 6.0625 C-5.696875 6.041875 -6.83125 6.02125 -8 6 C-7.38125 5.9175 -6.7625 5.835 -6.125 5.75 C-3.8234856 5.20005805 -3.8234856 5.20005805 -2.875 3 C-2.441875 2.01 -2.441875 2.01 -2 1 C-1.34 0.67 -0.68 0.34 0 0 Z " fill="#7DB8E2" transform="translate(144,141)"/>
<path d="M0 0 C0.99 0.33 1.98 0.66 3 1 C0.525 4.465 0.525 4.465 -2 8 C-3 5 -3 5 -2 2 C-1.34 2 -0.68 2 0 2 C0 1.34 0 0.68 0 0 Z " fill="#61ACD9" transform="translate(127,79)"/>
<path d="M0 0 C1.32 0.33 2.64 0.66 4 1 C3.67 2.65 3.34 4.3 3 6 C0.525 5.01 0.525 5.01 -2 4 C-1.34 2.68 -0.68 1.36 0 0 Z " fill="#3FA5D2" transform="translate(86,75)"/>
<path d="M0 0 C0 1.65 0 3.3 0 5 C-2.64 5.99 -5.28 6.98 -8 8 C-8 7.34 -8 6.68 -8 6 C-7.01 6 -6.02 6 -5 6 C-5 5.34 -5 4.68 -5 4 C-1.35294118 0 -1.35294118 0 0 0 Z " fill="#7EBEC9" transform="translate(14,72)"/>
<path d="M0 0 C0.33 0.99 0.66 1.98 1 3 C-0.65 4.65 -2.3 6.3 -4 8 C-3.67 5.69 -3.34 3.38 -3 1 C-2.01 0.67 -1.02 0.34 0 0 Z " fill="#6EB4CB" transform="translate(31,24)"/>
<path d="M0 0 C4.21912747 0.4794463 6.79663178 1.16625119 10 4 C7.36 4 4.72 4 2 4 C2.33 3.01 2.66 2.02 3 1 C2.01 0.67 1.02 0.34 0 0 Z " fill="#7ABDD7" transform="translate(66,5)"/>
<path d="M0 0 C-1.125 1.5 -1.125 1.5 -3 3 C-6.1875 3.1875 -6.1875 3.1875 -9 3 C-6.07868595 -0.19953443 -4.37453972 -1.45817991 0 0 Z " fill="#80C2D2" transform="translate(43,6)"/>
<path d="M0 0 C0 0.66 0 1.32 0 2 C0.66 2.33 1.32 2.66 2 3 C1.01 3.33 0.02 3.66 -1 4 C-1.33 3.67 -1.66 3.34 -2 3 C-3.66617115 2.95936168 -5.33388095 2.957279 -7 3 C-7 2.34 -7 1.68 -7 1 C-4.50935112 0.31292445 -2.62113708 0 0 0 Z " fill="#6FB7E3" transform="translate(136,147)"/>
<path d="M0 0 C0.66 0 1.32 0 2 0 C2.6875 1.8125 2.6875 1.8125 3 4 C1.5625 5.75 1.5625 5.75 0 7 C-0.66 5.68 -1.32 4.36 -2 3 C-1.34 2.01 -0.68 1.02 0 0 Z " fill="#3DB0D0" transform="translate(26,126)"/>
<path d="M0 0 C0.33 0 0.66 0 1 0 C0.88590407 1.45922693 0.75834456 2.91740598 0.625 4.375 C0.55539063 5.18710938 0.48578125 5.99921875 0.4140625 6.8359375 C0 9 0 9 -2 11 C-2.28571429 3.57142857 -2.28571429 3.57142857 0 0 Z " fill="#86BCE7" transform="translate(168,121)"/>
<path d="M0 0 C0.66 0 1.32 0 2 0 C0.125 5.75 0.125 5.75 -1 8 C-1.66 8 -2.32 8 -3 8 C-2.45276317 4.62537285 -1.9451 2.91765 0 0 Z " fill="#4E9FD0" transform="translate(119,88)"/>
<path d="M0 0 C2.0625 0.4375 2.0625 0.4375 4 1 C3.67 1.66 3.34 2.32 3 3 C2.34 2.67 1.68 2.34 1 2 C0.67 3.32 0.34 4.64 0 6 C-0.99 5.67 -1.98 5.34 -3 5 C-1.125 1.125 -1.125 1.125 0 0 Z " fill="#3EA4CE" transform="translate(79,85)"/>
<path d="M0 0 C0.99 0.33 1.98 0.66 3 1 C1.02 3.31 -0.96 5.62 -3 8 C-3.33 7.01 -3.66 6.02 -4 5 C-2.0625 2.3125 -2.0625 2.3125 0 0 Z " fill="#72B6D7" transform="translate(111,51)"/>
<path d="M0 0 C1.60080151 4.00200378 0.29279692 7.04556236 -1 11 C-1.33 11 -1.66 11 -2 11 C-2.05399736 9.54207116 -2.09279177 8.08357288 -2.125 6.625 C-2.15980469 5.40683594 -2.15980469 5.40683594 -2.1953125 4.1640625 C-2 2 -2 2 0 0 Z " fill="#64ADC0" transform="translate(15,50)"/>
<path d="M0 0 C3.4375 0.8125 3.4375 0.8125 7 2 C7.33 2.99 7.66 3.98 8 5 C2.25 3.375 2.25 3.375 0 0 Z " fill="#8DC4D9" transform="translate(38,157)"/>
<path d="M0 0 C4.67692308 1.47692308 4.67692308 1.47692308 6.3125 4.125 C6.539375 4.74375 6.76625 5.3625 7 6 C5.1875 5.8125 5.1875 5.8125 3 5 C1.25 2.4375 1.25 2.4375 0 0 Z " fill="#86C6D1" transform="translate(11,126)"/>
<path d="M0 0 C0.99 0.99 1.98 1.98 3 3 C2.01 3.99 1.02 4.98 0 6 C-0.99 5.01 -1.98 4.02 -3 3 C-2.01 2.67 -1.02 2.34 0 2 C0 1.34 0 0.68 0 0 Z " fill="#42AEC9" transform="translate(15,122)"/>
<path d="M0 0 C0 3.86695678 -1.41909971 6.5088452 -3 10 C-4.26339822 6.20980534 -3.49719015 4.62477616 -2 1 C-1.34 0.67 -0.68 0.34 0 0 Z " fill="#90C6D1" transform="translate(20,40)"/>
<path d="M0 0 C0.99 0.33 1.98 0.66 3 1 C1.25 4.875 1.25 4.875 -1 6 C-1 5.34 -1 4.68 -1 4 C-1.66 3.67 -2.32 3.34 -3 3 C-2.01 2.01 -1.02 1.02 0 0 Z " fill="#5CB2DC" transform="translate(110,34)"/>
<path d="M0 0 C-1.39195915 2.7839183 -3.15575779 2.97898997 -6 4 C-6.33 3.01 -6.66 2.02 -7 1 C-3.375 -1.125 -3.375 -1.125 0 0 Z " fill="#6FAFE0" transform="translate(154,152)"/>
<path d="M0 0 C0.66 0.33 1.32 0.66 2 1 C0.25 6.75 0.25 6.75 -2 9 C-1.125 1.125 -1.125 1.125 0 0 Z " fill="#57A0D5" transform="translate(164,132)"/>
<path d="M0 0 C0.33 0.99 0.66 1.98 1 3 C-0.98 3.99 -0.98 3.99 -3 5 C-3 5.66 -3 6.32 -3 7 C-3.66 6.67 -4.32 6.34 -5 6 C-3.63016497 2.83884224 -3.0109362 2.0072908 0 0 Z " fill="#43A1CD" transform="translate(92,106)"/>
<path d="M0 0 C1.875 0.3125 1.875 0.3125 4 1 C4.66 1.99 5.32 2.98 6 4 C2.25 5.125 2.25 5.125 0 4 C0 2.68 0 1.36 0 0 Z " fill="#5EB3D5" transform="translate(87,19)"/>
</svg>
